<svg width="40" height="41" viewBox="0 0 40 41" fill="none" xmlns="http://www.w3.org/2000/svg">
<rect x="0.5" y="1" width="39" height="39" rx="19.5" fill="white"/>
<rect x="0.5" y="1" width="39" height="39" rx="19.5" stroke="#E0E0E0"/>
<path d="M11 17V16.2C11 15.08 11 14.52 11.218 14.092C11.41 13.715 11.715 13.41 12.092 13.218C12.52 13 13.08 13 14.2 13H25.8C26.92 13 27.48 13 27.907 13.218C28.284 13.41 28.59 13.715 28.782 14.092C29 14.519 29 15.079 29 16.197V17M11 17H29M11 17V23.8C11 24.92 11 25.48 11.218 25.908C11.4097 26.2843 11.7157 26.5903 12.092 26.782C12.519 27 13.079 27 14.197 27H25.803C26.921 27 27.48 27 27.907 26.782C28.284 26.59 28.59 26.284 28.782 25.908C29 25.48 29 24.922 29 23.804V17M14 23H18" stroke="#2A295C" stroke-width="1.5" stroke-linecap="round" stroke-linejoin="round"/>
</svg>
