<svg width="40" height="40" viewBox="0 0 40 40" fill="none" xmlns="http://www.w3.org/2000/svg">
<rect width="40" height="40" rx="20" fill="#915FC8"/>
<path d="M22.2 10.5V14.5889C22.2 14.86 22.3076 15.12 22.4994 15.3117C22.6911 15.5034 22.9511 15.6111 23.2222 15.6111H27.3111" stroke="white" stroke-width="1.5" stroke-linecap="round" stroke-linejoin="round"/>
<path d="M17.0889 14.5889H18.1111M17.0889 20.7222H23.2222M21.1778 24.8111H23.2222M25.2667 28.9H15.0444C14.5022 28.9 13.9822 28.6846 13.5988 28.3012C13.2154 27.9178 13 27.3978 13 26.8556V12.5444C13 12.0022 13.2154 11.4822 13.5988 11.0988C13.9822 10.7154 14.5022 10.5 15.0444 10.5H22.2L27.3111 15.6111V26.8556C27.3111 27.3978 27.0957 27.9178 26.7123 28.3012C26.3289 28.6846 25.8089 28.9 25.2667 28.9Z" stroke="white" stroke-width="1.5" stroke-linecap="round" stroke-linejoin="round"/>
</svg>
