<svg width="45" height="29" viewBox="0 0 45 29" fill="none" xmlns="http://www.w3.org/2000/svg">
<rect x="0.5" y="1" width="44" height="27" rx="6.5" fill="#E0E0E0" fill-opacity="0.3"/>
<rect x="0.5" y="1" width="44" height="27" rx="6.5" stroke="#E0E0E0"/>
<path d="M24.4488 10.7564C24.4488 10.7564 25.3882 10.3123 21.9808 10.3123C20.7605 10.3123 19.5676 10.6596 18.5529 11.3101C17.5383 11.9607 16.7474 12.8853 16.2805 13.9672C15.8135 15.049 15.6913 16.2394 15.9293 17.3879C16.1674 18.5364 16.7551 19.5913 17.6179 20.4193C18.4808 21.2473 19.5802 21.8112 20.7771 22.0396C21.9739 22.2681 23.2145 22.1508 24.3419 21.7027C25.4694 21.2546 26.433 20.4958 27.111 19.5221C27.7889 18.5485 28.1508 17.4038 28.1508 16.2329" stroke="#2A295C" stroke-miterlimit="10" stroke-linecap="round"/>
<path d="M21.9807 7.5L25.0657 10.4603L21.9807 13.4205" stroke="#2A295C" stroke-linecap="round" stroke-linejoin="round"/>
</svg>
