<svg width="18" height="18" viewBox="0 0 18 18" fill="none" xmlns="http://www.w3.org/2000/svg">
<path d="M14.3168 10.8308V14.1608C14.3166 14.6319 14.1293 15.0837 13.7962 15.4169C13.463 15.7501 13.0112 15.9373 12.54 15.9375H3.83928C3.6051 15.9374 3.37324 15.891 3.15703 15.8011C2.94083 15.7111 2.74453 15.5793 2.57942 15.4132C2.41432 15.2471 2.28366 15.05 2.19496 14.8333C2.10625 14.6166 2.06125 14.3844 2.06253 14.1503V5.45926C2.06114 5.22545 2.10616 4.99368 2.195 4.7774C2.28383 4.56111 2.41471 4.36461 2.58004 4.19927C2.74538 4.03394 2.94188 3.90306 3.15817 3.81423C3.37445 3.7254 3.60622 3.68037 3.84003 3.68176H7.16928" stroke="#283897" stroke-width="1.125" stroke-linecap="round" stroke-linejoin="round"/>
<path d="M14.3163 6.74626L11.2525 3.68176M5.125 11.8523V10.2285C5.1265 9.96076 5.233 9.70351 5.42125 9.51376L12.5703 2.36476C12.6651 2.26884 12.7781 2.19269 12.9025 2.14071C13.027 2.08874 13.1606 2.06198 13.2955 2.06198C13.4304 2.06198 13.564 2.08874 13.6885 2.14071C13.8129 2.19269 13.9259 2.26884 14.0208 2.36476L15.634 3.97801C15.7299 4.07286 15.8061 4.18581 15.858 4.3103C15.91 4.43479 15.9368 4.56835 15.9368 4.70326C15.9368 4.83816 15.91 4.97172 15.858 5.09621C15.8061 5.2207 15.7299 5.33365 15.634 5.42851L8.485 12.5775C8.2949 12.7663 8.03816 12.8727 7.77025 12.8738H6.1465C6.0123 12.874 5.87938 12.8477 5.75536 12.7964C5.63133 12.7451 5.51865 12.6699 5.42375 12.575C5.32886 12.4801 5.25362 12.3674 5.20236 12.2434C5.15109 12.1194 5.1248 11.9865 5.125 11.8523Z" stroke="#283897" stroke-width="1.125" stroke-linecap="round" stroke-linejoin="round"/>
</svg>
