<svg width="40" height="40" viewBox="0 0 40 40" fill="none" xmlns="http://www.w3.org/2000/svg">
<rect width="40" height="40" rx="20" fill="#DA2020"/>
<path d="M24.7399 28.6998H26.5598C27.0424 28.6998 27.5054 28.5081 27.8467 28.1667C28.188 27.8254 28.3797 27.3625 28.3797 26.8798V15.05L23.8299 10.5H15.6402C15.1576 10.5 14.6947 10.6917 14.3534 11.0331C14.0121 11.3744 13.8203 11.8373 13.8203 12.32V15.05" stroke="white" stroke-width="1.5" stroke-linecap="round" stroke-linejoin="round"/>
<path d="M22.9194 10.5V14.14C22.9194 14.6226 23.1112 15.0856 23.4525 15.4269C23.7938 15.7682 24.2567 15.9599 24.7394 15.9599H28.3792" stroke="white" stroke-width="1.5" stroke-linecap="round" stroke-linejoin="round"/>
<path d="M17.4598 28.6999C20.4751 28.6999 22.9195 26.2554 22.9195 23.24C22.9195 20.2245 20.4751 17.78 17.4598 17.78C14.4444 17.78 12 20.2245 12 23.24C12 26.2554 14.4444 28.6999 17.4598 28.6999Z" stroke="white" stroke-width="1.5" stroke-linecap="round" stroke-linejoin="round"/>
<path d="M18.8251 24.6049L17.4602 23.4674V21.4199" stroke="white" stroke-width="1.5" stroke-linecap="round" stroke-linejoin="round"/>
</svg>
