<svg width="114" height="38" viewBox="0 0 114 38" fill="none" xmlns="http://www.w3.org/2000/svg">
<path d="M53.7337 23.2428L52.502 29.394C51.9598 31.8879 50.4576 33.5523 47.3888 33.5523C43.8664 33.5523 42.9368 31.3678 43.7095 28.2938C44.8033 23.9334 48.3605 22.6343 53.7337 23.2428ZM59.2806 14.4482L55.536 14.6872L54.3517 20.7099C52.9199 20.6594 52.4694 20.6141 50.786 20.6141C45.516 20.6141 40.9166 22.8291 39.7017 28.0254C38.6069 32.7101 41.2682 36.3463 47.072 36.3463C53.0168 36.3463 55.6034 33.2449 56.5329 28.8834L59.2806 14.4482Z" fill="#2B3797"/>
<path d="M18.6555 23.5053C13.1644 23.0052 8.44073 23.461 8.36388 25.3254C8.24492 28.1247 17.4143 25.6823 17.2374 30.8323C16.9795 38.3984 4.22977 36.6582 1.07471 35.6949L1.6474 33.4494C7.08691 34.3127 12.8254 34.3843 12.9517 31.384C13.0865 28.1952 3.87921 31.0618 4.09502 25.8981C4.25609 22.0514 10.0104 19.9775 19.4292 21.3608L18.6555 23.5053Z" fill="#2B3797"/>
<path d="M33.4616 28.6521C32.6689 31.8103 30.1645 33.7937 27.182 33.7937C24.0638 33.7937 22.6605 31.9862 23.4964 28.6521C24.2902 25.4939 26.8241 23.3737 29.8055 23.3737C32.7847 23.3737 34.2543 25.4939 33.4616 28.6521ZM30.2855 20.7881C24.825 20.7881 20.435 23.9474 19.356 28.6521C18.2737 33.36 21.2141 36.5182 26.6725 36.5182C32.131 36.5182 36.522 33.36 37.6021 28.6521C38.6843 23.9474 35.745 20.7881 30.2855 20.7881Z" fill="#2B3797"/>
<path d="M93.3784 36.4383H88.6316C85.7534 33.7317 80.2465 27.5132 76.1924 20.9325H79.6759C83.5258 26.2446 93.3784 36.4383 93.3784 36.4383Z" fill="#2B3797"/>
<path d="M98.3526 5.64015L100.536 1.08705L101.159 5.71595L105.612 4.1579L102.5 8.14778L105.875 10.7628L101.371 11.1112L101.122 15.9244L98.6179 12.3672L94.9365 15.7612L96.3166 10.9786L91.9751 10.3901L96.2008 7.9825L94.4669 3.86313L98.3526 5.64015Z" fill="#2B3797"/>
<path d="M107.609 28.6998C106.804 31.9075 104.26 33.9224 101.232 33.9224C98.0651 33.9224 96.6376 32.0865 97.4882 28.6998C98.2935 25.4921 100.866 23.3382 103.894 23.3382C106.924 23.3382 108.416 25.4921 107.609 28.6998ZM104.383 20.7095C98.8378 20.7095 94.3795 23.9193 93.2804 28.6998C92.1824 33.4813 95.169 36.6901 100.714 36.6901C106.26 36.6901 110.719 33.4813 111.816 28.6998C112.915 23.9193 109.928 20.7095 104.383 20.7095Z" fill="#2B3797"/>
<path d="M72.5947 35.1166C81.5599 30.1371 89.347 22.4847 94.8707 15.8693C90.8998 28.2979 81.3409 34.9871 72.5947 35.1166Z" fill="#ED1C24"/>
<path d="M69.0464 23.0947C70.7634 23.0947 71.6983 23.7179 71.6983 24.9085C71.6983 28.0689 65.5366 27.8604 62.8194 27.3067C63.7753 24.9412 65.9335 23.0947 69.0464 23.0947ZM75.3913 24.7359C75.3913 22.4441 73.5648 20.7597 69.4201 20.7597C62.6984 20.7597 58.3306 25.1233 58.3306 30.5249C58.3306 34.0137 61.2267 36.9129 66.5167 36.9129C70.1613 36.9129 72.5952 35.117 72.5952 35.117C67.9568 35.6139 62.2604 35.117 62.2604 30.1543C62.2604 29.9575 62.271 29.7606 62.2868 29.5638C68.6158 30.8776 75.3913 29.2879 75.3913 24.7359Z" fill="#2B3797"/>
</svg>
