<svg width="22" height="18" viewBox="0 0 22 18" fill="none" xmlns="http://www.w3.org/2000/svg">
<path d="M11.5276 6.96386V17.4847C11.5276 17.7638 11.2856 18 10.9996 18C10.7136 18 10.4716 17.7638 10.4716 17.4847V6.96386L8.3817 9.11097C8.18371 9.32568 7.83172 9.32568 7.61173 9.13244C7.39174 8.9392 7.39174 8.59566 7.58973 8.38095L10.6036 5.31058C10.7136 5.20323 10.8456 5.13881 10.9996 5.13881C11.1536 5.13881 11.2856 5.20323 11.3956 5.31058L14.4095 8.38095C14.6075 8.59566 14.6075 8.91773 14.3875 9.13244C14.2775 9.23979 14.1455 9.28274 14.0135 9.28274C13.8815 9.28274 13.7275 9.21832 13.6175 9.11097L11.5276 6.96386ZM21.9992 9.34715C21.9332 6.83503 20.1073 4.27997 16.7634 4.27997C16.6754 4.27997 16.5874 4.27997 16.4994 4.27997C16.2794 3.27083 15.8174 2.36904 15.0915 1.63903C14.3215 0.866068 13.3095 0.329291 12.1876 0.11458C9.89965 -0.336313 7.67773 0.565472 6.42377 2.43346C5.12582 2.28316 3.87186 2.69111 2.8819 3.54995C1.86993 4.43027 1.34195 5.67559 1.40795 6.96386C0.505982 7.80123 0 8.96067 0 10.1631C0 12.6108 2.04593 14.5861 4.53184 14.5861H8.84368C9.12967 14.5861 9.37166 14.3499 9.37166 14.0708C9.37166 13.7917 9.12967 13.5555 8.84368 13.5555H4.53184C2.61791 13.5555 1.07796 12.031 1.07796 10.1845C1.07796 9.19685 1.53995 8.25212 2.33192 7.58652C2.46391 7.47916 2.52991 7.3074 2.52991 7.13563C2.41991 6.06207 2.8379 5.05293 3.65187 4.32291C4.46584 3.61437 5.5438 3.31377 6.62176 3.52848C6.84176 3.57143 7.08375 3.46407 7.19374 3.27083C8.16171 1.59608 10.0316 0.758712 11.9896 1.16666C13.5295 1.46726 15.2675 2.6267 15.5314 4.9241C15.5534 5.0744 15.6194 5.20323 15.7294 5.28911C15.8394 5.375 15.9934 5.41794 16.1474 5.39647C16.3454 5.375 16.5654 5.35353 16.7854 5.35353C19.5793 5.35353 20.8993 7.45769 20.9433 9.39009C20.9872 11.3654 19.7113 13.4267 16.7634 13.5555H13.1555C12.8695 13.5555 12.6275 13.7917 12.6275 14.0708C12.6275 14.3499 12.8695 14.5861 13.1555 14.5861H16.7634H16.7854C18.4353 14.5002 19.8213 13.899 20.7673 12.8469C21.5812 11.9237 22.0212 10.6784 21.9992 9.34715Z" fill="#283897"/>
</svg>
