<svg xmlns="http://www.w3.org/2000/svg" height="800" width="1200" viewBox="-44.3592 -48.8815 384.4464 293.289"><path d="M0 149.851h14.039v15.04H27.31v-15.04h14.04v44.443H27.31v-17.198H14.039v17.198H0zm61.255 0h14.217l15.282 44.443h-13.92l-1.715-5.914H61.255l-1.66 5.914H45.97zm2.608 29.277h8.825l-4.502-15.9zm24.286-29.277h14.16l7.524 29.525 7.758-29.525h14.099l-14.81 44.443h-14.097zm49.29 0h34.83v10.356h-20.792v6.412h17.534v10.353h-17.534v6.967h21.625v10.355h-35.664zm42.829 0h14.041v34.088H213.5v10.355h-33.232zm39.57 0h14.04v34.088h19.196v10.355H219.84zm61.434 12.881c-.355-2.545-2.269-3.818-5.748-3.818-2.765 0-4.201.8-4.323 2.404-.038.987.422 1.805 1.392 2.464.968.657 2.261 1.202 3.88 1.635 1.618.433 3.181.833 4.68 1.202 5.016 1.233 8.71 2.898 11.078 4.99 2.369 2.096 3.535 4.996 3.496 8.693 0 3.615-.929 6.565-2.784 8.847-1.858 2.278-4.296 3.912-7.315 4.9-3.021.986-6.269 1.477-9.748 1.477-5.21 0-9.625-1.387-13.24-4.16-3.614-2.774-5.538-6.377-5.775-10.816h13.448c.315 1.765 1.136 3 2.46 3.697 1.32.698 2.693 1.048 4.116 1.048 3.435-.163 5.252-1.172 5.45-3.022.158-1.273-.463-2.25-1.866-2.925-1.403-.68-3.565-1.386-6.49-2.128-3.67-.946-6.595-1.913-8.764-2.898a13.231 13.231 0 01-5.363-4.408c-1.403-1.95-2.084-4.527-2.043-7.736.08-3.987 1.765-7.232 5.065-9.738 3.297-2.509 7.81-3.76 13.537-3.76 3.04 0 5.833.444 8.38 1.323 2.551.885 4.71 2.388 6.49 4.502 1.776 2.118 2.882 4.858 3.315 8.227z" fill="#ed1c24"/><path d="M109.985 35.895a7.856 7.856 0 01-1.136-.078c-2.384-.358-4.193-1.77-5.086-3.975-.42-1.04-.623-2.128-.623-3.33 0-1.685.41-3.367.772-4.646 1.954-6.961 4.19-11.847 6.837-14.948a11.96 11.96 0 011.527-1.517l.16-.113c.06-.052.127-.099.188-.143.976-.711 1.919-1.053 2.831-1.056 2.175 0 4.486 1.988 6.518 5.602 2.114 3.75 3.948 9.214 5.31 15.806.457 2.228.851 4.502 1.196 6.92-.948.063-1.9.124-2.848.19-3.184.22-6.131.452-9.007.709-1.414.13-2.829.262-4.237.405l-.331.033c-.72.075-1.4.14-2.07.14" fill="#f25746"/><path d="M113.726 113.055h-.028c-.943 0-1.913-.38-2.878-1.125h-.003l-.028-.03-.071-.052-.064-.05-.069-.058c-.035-.025-.066-.055-.104-.077a11.637 11.637 0 01-1.495-1.577c-2.638-3.309-4.766-8.522-6.503-15.93-.384-1.624-.756-3.358-.756-5.062 0-1.251.199-2.423.61-3.581.862-2.435 2.619-4.114 4.943-4.723a8.041 8.041 0 012.034-.242c.447 0 .902.027 1.448.08 1.414.143 2.906.278 4.43.413 3.047.265 6.231.51 9.473.728 1.144.077 2.294.149 3.441.223-.463 3.033-.995 5.84-1.613 8.566-1.546 6.818-3.562 12.514-5.82 16.46-2.194 3.834-4.73 6.037-6.964 6.037" fill="#ba151b"/><path d="M209.889 59.622c-.069-13.832-4.546-27.542-12.61-38.606-6.526-8.947-14.985-15.795-24.766-20.137-.753-.298-3.303-.993-3.951-.863-2.412.482-4.138 2.754-4.662 5.693-.13.72-.185 1.483-.16 2.266-.094 1.49-.18 3.052-.262 4.756-.027.284-.03.717-.05 1.232-.074 1.922-.184 4.825-.377 5.953-1.707 9.815-11.599 16.029-20.17 16.368a577.2 577.2 0 00-17.069.91c-3.038.215-6.051.452-8.957.708-1.4.127-2.807.257-4.213.4l-.325.033c-.75.077-1.528.157-2.335.157-.54 0-1.04-.033-1.511-.104-3.292-.488-5.886-2.518-7.113-5.572-.549-1.357-.813-2.763-.813-4.31 0-1.99.463-3.903.865-5.345.747-2.644 1.778-5.966 3.237-9.175a64.957 64.957 0 00-12.194 17.302c-4.138 8.569-6.424 18.147-6.606 27.708v1.268c-.003 16.787 6.209 32.66 17.245 44.57-1.461-3.513-2.432-7.185-3.11-10.083-.419-1.775-.824-3.675-.824-5.657 0-1.555.245-3.008.752-4.447 1.158-3.275 3.551-5.533 6.741-6.366a10.26 10.26 0 012.688-.33c.524 0 1.084.03 1.71.093a446.222 446.222 0 0013.812 1.133c5.702.386 11.706.695 17.849.924 4.75.176 9.685 2.114 13.537 5.315 4.072 3.383 6.666 7.874 7.314 12.657.135 1.001.267 3.868.366 5.958.034.687.056 1.255.075 1.58.138 2.404.278 4.519.43 6.462v.011c.063.85.13 1.627.193 2.352.535 2.713 2.128 4.811 4.386 5.335.77.182 1.553.151 2.316-.039a74.41 74.41 0 001.858-.819c9.66-4.482 17.992-11.408 24.402-20.37 7.938-11.114 12.31-24.825 12.31-38.593v-.328z" fill="#ed1c24"/></svg>