<?xml version="1.0" encoding="iso-8859-1"?>
<!-- Generator: Adobe Illustrator 27.0.0, SVG Export Plug-In . SVG Version: 6.00 Build 0)  -->
<svg version="1.1" id="Layer_1" xmlns="http://www.w3.org/2000/svg" xmlns:xlink="http://www.w3.org/1999/xlink" x="0px" y="0px"
	 viewBox="0 0 500 500" style="enable-background:new 0 0 500 500;" xml:space="preserve">
<g id="watermark_1_">
	<g>
		<g id="watermark" style="opacity:0.61;">
			<g>
				<g>
					<g>
						<g>
							<polygon style="fill:#FFFFFF;" points="213.765,461.172 208.204,474.017 205.268,474.017 199.726,461.172 202.938,461.172 
								206.846,470.347 210.81,461.172 							"/>
						</g>
						<g>
							<path style="fill:#FFFFFF;" d="M223.507,469.741h-7.469c0.275,1.23,1.321,1.982,2.826,1.982c1.046,0,1.798-0.312,2.477-0.954
								l1.523,1.651c-0.917,1.046-2.294,1.597-4.074,1.597c-3.413,0-5.634-2.147-5.634-5.083c0-2.954,2.257-5.083,5.267-5.083
								c2.899,0,5.138,1.945,5.138,5.12C223.562,469.191,223.526,469.503,223.507,469.741 M216.002,468.071h4.863
								c-0.202-1.248-1.138-2.055-2.422-2.055C217.139,466.016,216.204,466.805,216.002,468.071"/>
						</g>
						<g>
							<path style="fill:#FFFFFF;" d="M224.735,468.934c0-2.973,2.294-5.083,5.505-5.083c2.074,0,3.707,0.899,4.423,2.514
								l-2.22,1.193c-0.532-0.936-1.321-1.358-2.221-1.358c-1.45,0-2.587,1.009-2.587,2.734c0,1.725,1.138,2.734,2.587,2.734
								c0.899,0,1.688-0.404,2.221-1.358l2.22,1.211c-0.716,1.578-2.349,2.495-4.423,2.495
								C227.029,474.017,224.735,471.907,224.735,468.934"/>
						</g>
						<g>
							<path style="fill:#FFFFFF;" d="M242.828,473.393c-0.587,0.422-1.45,0.624-2.331,0.624c-2.33,0-3.688-1.193-3.688-3.542
								v-4.055h-1.523v-2.202h1.523v-2.404h2.863v2.404h2.459v2.202h-2.459v4.019c0,0.844,0.458,1.303,1.229,1.303
								c0.422,0,0.844-0.128,1.156-0.367L242.828,473.393z"/>
						</g>
					</g>
					<g>
						<path style="fill:#FFFFFF;" d="M262.474,463.997v2.643c-0.238-0.018-0.422-0.037-0.642-0.037
							c-1.578,0-2.624,0.862-2.624,2.753v4.661h-2.863v-9.873h2.734v1.303C259.776,464.493,260.951,463.997,262.474,463.997"/>
					</g>
					<g>
						<path style="fill:#FFFFFF;" d="M263.299,472.53l1.009-2.239c1.083,0.789,2.697,1.339,4.239,1.339
							c1.762,0,2.477-0.587,2.477-1.376c0-2.404-7.469-0.752-7.469-5.524c0-2.184,1.762-4,5.413-4c1.615,0,3.267,0.385,4.459,1.138
							l-0.918,2.257c-1.193-0.679-2.422-1.009-3.56-1.009c-1.761,0-2.44,0.66-2.44,1.468c0,2.367,7.468,0.734,7.468,5.45
							c0,2.147-1.78,3.982-5.45,3.982C266.492,474.017,264.437,473.411,263.299,472.53"/>
					</g>
					<g>
						<path style="fill:#FFFFFF;" d="M285.428,469.741h-7.469c0.275,1.23,1.321,1.982,2.826,1.982c1.046,0,1.798-0.312,2.477-0.954
							l1.523,1.651c-0.918,1.046-2.294,1.597-4.074,1.597c-3.413,0-5.634-2.147-5.634-5.083c0-2.954,2.257-5.083,5.267-5.083
							c2.9,0,5.138,1.945,5.138,5.12C285.484,469.191,285.447,469.503,285.428,469.741 M277.923,468.071h4.863
							c-0.202-1.248-1.138-2.055-2.422-2.055C279.061,466.016,278.125,466.805,277.923,468.071"/>
					</g>
					<g>
						<path style="fill:#FFFFFF;" d="M297.007,469.741h-7.469c0.275,1.23,1.321,1.982,2.826,1.982c1.046,0,1.798-0.312,2.477-0.954
							l1.523,1.651c-0.918,1.046-2.294,1.597-4.074,1.597c-3.413,0-5.634-2.147-5.634-5.083c0-2.954,2.257-5.083,5.267-5.083
							c2.899,0,5.138,1.945,5.138,5.12C297.062,469.191,297.025,469.503,297.007,469.741 M289.501,468.071h4.863
							c-0.202-1.248-1.138-2.055-2.422-2.055C290.639,466.016,289.703,466.805,289.501,468.071"/>
					</g>
					<g>
						<polygon style="fill:#FFFFFF;" points="303.208,470.145 301.831,471.503 301.831,474.017 298.969,474.017 298.969,460.401 
							301.831,460.401 301.831,468.108 306.016,464.144 309.429,464.144 305.318,468.328 309.796,474.017 306.327,474.017 						"/>
					</g>
					<g>
						<path style="fill:#FFFFFF;" d="M256.601,475.359L256.601,475.359l-2.86-2.86c-0.435,0.508-0.953,0.943-1.534,1.284
							c-0.092,0.069-0.186,0.136-0.283,0.199l3.027,3.027c0.456,0.456,1.195,0.456,1.65,0
							C257.057,476.554,257.057,475.815,256.601,475.359"/>
					</g>
					<g>
						<path style="fill:#FFFFFF;" d="M249.984,463.244c0.221-0.173,0.495-0.281,0.797-0.281c0.042,0,0.083,0.002,0.124,0.006
							c-0.214-0.156-0.478-0.249-0.764-0.249c-0.395,0-0.744,0.18-0.981,0.458c-0.051,0-0.1,0.006-0.151,0.008
							c0.039-0.077,0.064-0.162,0.064-0.255c0-0.234-0.143-0.434-0.346-0.519c0.087,0.126,0.138,0.279,0.138,0.445
							c0,0.122-0.031,0.237-0.081,0.341c-2.811,0.201-5.03,2.539-5.03,5.4c0,2.993,2.426,5.42,5.42,5.42
							c2.993,0,5.42-2.426,5.42-5.42C254.595,465.879,252.593,463.635,249.984,463.244 M247.983,464.656
							c0.435,0,0.844,0.112,1.199,0.309c0.374-0.245,0.82-0.387,1.299-0.387c0.711,0,1.348,0.312,1.784,0.806
							c-0.435-0.379-1.004-0.61-1.627-0.61c-0.449,0-0.87,0.12-1.234,0.329c-0.079,0.046-0.156,0.096-0.229,0.15
							c-0.065-0.048-0.133-0.093-0.204-0.134c-0.369-0.219-0.8-0.344-1.26-0.344c-0.3,0-0.588,0.054-0.854,0.152
							C247.196,464.754,247.578,464.656,247.983,464.656 M251.772,469.098c0.115,0.305,0.181,0.634,0.181,0.979
							c0,1.534-1.244,2.777-2.778,2.777c-1.534,0-2.777-1.243-2.777-2.777c0-0.345,0.066-0.674,0.181-0.979
							c-0.62-0.382-1.035-1.064-1.035-1.846c0-1.197,0.971-2.168,2.168-2.168c0.565,0,1.078,0.218,1.463,0.572
							c0.386-0.354,0.899-0.572,1.464-0.572c1.197,0,2.168,0.971,2.168,2.168C252.807,468.034,252.392,468.716,251.772,469.098"/>
					</g>
					<g>
						<path style="fill:#FFFFFF;" d="M251.666,467.061c0,0.497-0.404,0.901-0.901,0.901c-0.497,0-0.901-0.404-0.901-0.901
							s0.404-0.901,0.901-0.901c0.101,0,0.197,0.017,0.287,0.047c-0.03,0.062-0.045,0.132-0.045,0.204
							c0,0.273,0.221,0.494,0.494,0.494c0.05,0,0.099-0.008,0.146-0.022C251.66,466.941,251.666,467,251.666,467.061"/>
					</g>
					<g>
						<path style="fill:#FFFFFF;" d="M248.255,467.061c0,0.376-0.305,0.681-0.681,0.681c-0.376,0-0.681-0.305-0.681-0.681
							s0.305-0.681,0.681-0.681c0.076,0,0.149,0.013,0.217,0.035c-0.023,0.047-0.034,0.1-0.034,0.155
							c0,0.206,0.167,0.374,0.374,0.374c0.038,0,0.075-0.006,0.11-0.017C248.25,466.97,248.255,467.015,248.255,467.061"/>
					</g>
					<g>
						<g>
							<g>
								<rect x="242.908" y="467.83" style="fill:#FFFFFF;" width="0.616" height="0.616"/>
							</g>
							<g>
								<rect x="254.827" y="467.83" style="fill:#FFFFFF;" width="0.616" height="0.616"/>
							</g>
							<g>
								<path style="fill:#FFFFFF;" d="M255.205,468.082h-0.14c0-3.248-2.642-5.89-5.89-5.89c-3.248,0-5.89,2.642-5.89,5.89h-0.14
									c0-1.611,0.627-3.125,1.766-4.264c1.139-1.139,2.653-1.766,4.264-1.766c1.611,0,3.125,0.627,4.264,1.766
									C254.578,464.957,255.205,466.471,255.205,468.082"/>
							</g>
						</g>
						<g>
							<rect x="248.868" y="461.814" style="fill:#FFFFFF;" width="0.616" height="0.616"/>
						</g>
						<g>
							<rect x="244.95" y="462.052" style="fill:#FFFFFF;" width="8.45" height="0.14"/>
						</g>
						<g>
							<path style="fill:#FFFFFF;" d="M245.174,462.15c0,0.108-0.088,0.196-0.196,0.196c-0.108,0-0.196-0.088-0.196-0.196
								c0-0.108,0.088-0.196,0.196-0.196C245.086,461.954,245.174,462.042,245.174,462.15"/>
						</g>
						<g>
							<path style="fill:#FFFFFF;" d="M253.596,462.15c0,0.108-0.088,0.196-0.196,0.196c-0.108,0-0.196-0.088-0.196-0.196
								c0-0.108,0.088-0.196,0.196-0.196C253.509,461.954,253.596,462.042,253.596,462.15"/>
						</g>
					</g>
				</g>
				<g>
					<path style="fill:#FFFFFF;" d="M314.356,473.409c0,1.559-2.364,1.559-2.364,0C311.993,471.851,314.356,471.851,314.356,473.409
						z"/>
				</g>
				<g>
					<g>
						<g>
							<path style="fill:#FFFFFF;" d="M161.739,466.549l1.772,6.088l1.855-6.088h2.215l-2.823,8.14h-2.33l-0.837-2.396l-0.722-2.708
								l-0.722,2.708l-0.837,2.396h-2.33l-2.839-8.14h2.231l1.855,6.088l1.756-6.088H161.739z"/>
						</g>
						<g>
							<path style="fill:#FFFFFF;" d="M176.713,466.549l1.772,6.088l1.855-6.088h2.215l-2.823,8.14h-2.33l-0.837-2.396l-0.722-2.708
								l-0.722,2.708l-0.837,2.396h-2.33l-2.839-8.14h2.231l1.855,6.088l1.756-6.088H176.713z"/>
						</g>
						<g>
							<path style="fill:#FFFFFF;" d="M191.687,466.549l1.772,6.088l1.855-6.088h2.215l-2.823,8.14h-2.33l-0.837-2.396l-0.722-2.708
								l-0.722,2.708l-0.837,2.396h-2.33l-2.839-8.14h2.231l1.855,6.088l1.756-6.088H191.687z"/>
						</g>
					</g>
					<g>
						<path style="fill:#FFFFFF;" d="M200.908,473.52c0,1.559-2.364,1.559-2.364,0C198.545,471.962,200.908,471.962,200.908,473.52z
							"/>
					</g>
					<g>
						<path style="fill:#FFFFFF;" d="M322.71,473.409c-0.935,0.919-1.919,1.28-3.117,1.28c-2.346,0-4.3-1.411-4.3-4.282
							s1.953-4.284,4.3-4.284c1.149,0,2.035,0.329,2.921,1.199l-1.264,1.329c-0.476-0.428-1.066-0.64-1.623-0.64
							c-1.346,0-2.33,0.985-2.33,2.396c0,1.542,1.05,2.362,2.297,2.362c0.64,0,1.28-0.18,1.772-0.672L322.71,473.409z"/>
					</g>
					<g>
						<path style="fill:#FFFFFF;" d="M331.805,470.472c0,2.33-1.591,4.217-4.217,4.217c-2.626,0-4.201-1.887-4.201-4.217
							c0-2.314,1.609-4.217,4.185-4.217C330.149,466.255,331.805,468.158,331.805,470.472z M325.389,470.472
							c0,1.231,0.739,2.38,2.199,2.38c1.46,0,2.199-1.149,2.199-2.38c0-1.215-0.854-2.396-2.199-2.396
							C326.144,468.077,325.389,469.258,325.389,470.472z"/>
					</g>
					<g>
						<path style="fill:#FFFFFF;" d="M338.572,474.689v-4.332c0-1.068-0.559-2.035-1.658-2.035c-1.082,0-1.722,0.967-1.722,2.035
							v4.332h-2.003v-8.107h1.855l0.148,0.985c0.426-0.82,1.362-1.116,2.133-1.116c0.969,0,1.937,0.394,2.396,1.51
							c0.723-1.149,1.658-1.478,2.708-1.478c2.297,0,3.43,1.412,3.43,3.84v4.365h-2.003v-4.365c0-1.066-0.442-1.97-1.526-1.97
							c-1.082,0-1.756,0.935-1.756,2.003v4.332H338.572z"/>
					</g>
				</g>
			</g>
		</g>
		<g style="opacity:0.61;">
			<g>
				<g>
					<path style="fill:#FFFFFF;" d="M345.988,431.299c-0.006-1.224-0.959-2.121-2.189-2.14c-0.924-0.014-0.832,0.12-0.834-0.867
						c-0.003-1.097-0.007-2.194,0.003-3.292c0.003-0.379-0.112-0.691-0.362-0.976c-2.342-2.668-4.678-5.342-7.019-8.011
						c-0.12-0.137-0.275-0.244-0.414-0.366c-6.214,0-12.427,0-18.641,0c-0.794,0.293-1.14,0.868-1.138,1.709
						c0.01,3.748,0.004,7.496,0.004,11.243c0,0.556-0.003,0.589-0.55,0.551c-1.497-0.102-2.516,0.986-2.497,2.492
						c0.044,3.476,0.013,6.953,0.014,10.429c0.001,1.58,0.867,2.443,2.45,2.449c0.582,0.002,0.582,0.002,0.582,0.6
						c0,2.219-0.001,4.438,0.001,6.657c0.001,1.192,0.58,1.771,1.768,1.771c8.013,0.001,16.027,0.001,24.04,0
						c1.168,0,1.755-0.583,1.757-1.745c0.002-2.256,0-4.512,0.001-6.768c0-0.512,0.002-0.511,0.52-0.515
						c0.271-0.002,0.541,0.008,0.809-0.058c0.996-0.246,1.69-1.044,1.694-2.069C346.003,438.696,346.005,434.997,345.988,431.299z
						 M317.537,417.162c5.337,0,10.674,0,16.01,0c0.548,0,0.554,0.007,0.554,0.561c0.001,2.243-0.001,4.486,0.001,6.73
						c0.001,0.811,0.249,1.059,1.06,1.059c1.91,0.001,3.821,0,5.731,0.001c0.458,0,0.479,0.021,0.481,0.483
						c0.003,0.887,0.002,1.775,0,2.662c-0.001,0.477-0.024,0.498-0.504,0.499c-3.895,0.001-7.79,0-11.684,0
						c-3.882,0-7.765,0-11.647,0c-0.55,0-0.552-0.001-0.552-0.561c-0.001-3.624-0.001-7.247,0-10.871
						C316.987,417.166,316.991,417.162,317.537,417.162z M340.822,451.579c-3.883,0.001-7.766,0-11.65,0c-3.871,0-7.742,0-11.613,0
						c-0.572,0-0.574-0.002-0.574-0.579c-0.001-1.997-0.001-3.994,0.001-5.991c0-0.464,0.023-0.486,0.478-0.487
						c7.803-0.001,15.607-0.001,23.41,0c0.478,0,0.499,0.02,0.499,0.503c0.002,1.997,0.001,3.994,0,5.991
						C341.375,451.574,341.37,451.579,340.822,451.579z"/>
				</g>
				<g>
					<g>
						<rect x="327.418" y="417.053" style="fill:#FFFFFF;" width="1.757" height="1.054"/>
					</g>
					<g>
						<rect x="325.662" y="418.107" style="fill:#FFFFFF;" width="1.757" height="1.054"/>
					</g>
					<g>
						<rect x="327.418" y="419.161" style="fill:#FFFFFF;" width="1.757" height="1.054"/>
					</g>
					<g>
						<rect x="325.662" y="420.215" style="fill:#FFFFFF;" width="1.757" height="1.054"/>
					</g>
					<g>
						<rect x="327.418" y="421.269" style="fill:#FFFFFF;" width="1.757" height="1.054"/>
					</g>
					<g>
						<rect x="325.662" y="422.323" style="fill:#FFFFFF;" width="1.757" height="1.054"/>
					</g>
					<g>
						<rect x="327.418" y="423.378" style="fill:#FFFFFF;" width="1.757" height="1.054"/>
					</g>
					<g>
						<rect x="325.662" y="424.432" style="fill:#FFFFFF;" width="1.757" height="1.054"/>
					</g>
					<g>
						<rect x="327.418" y="425.486" style="fill:#FFFFFF;" width="1.757" height="1.054"/>
					</g>
					<g>
						<rect x="325.662" y="426.54" style="fill:#FFFFFF;" width="1.757" height="1.054"/>
					</g>
					<g>
						<rect x="327.418" y="427.594" style="fill:#FFFFFF;" width="1.757" height="1.054"/>
					</g>
					<g>
						<rect x="325.662" y="428.648" style="fill:#FFFFFF;" width="1.757" height="1.054"/>
					</g>
				</g>
			</g>
			<g>
				<path style="fill:#FFFFFF;" d="M187.637,431.299c-0.006-1.224-0.959-2.121-2.189-2.14c-0.924-0.014-0.832,0.12-0.834-0.867
					c-0.003-1.097-0.007-2.194,0.003-3.292c0.003-0.379-0.112-0.691-0.362-0.976c-2.342-2.668-4.678-5.342-7.019-8.011
					c-0.12-0.137-0.275-0.244-0.414-0.366c-6.214,0-12.427,0-18.641,0c-0.794,0.293-1.14,0.868-1.138,1.709
					c0.01,3.748,0.004,7.496,0.004,11.243c0,0.556-0.003,0.589-0.55,0.551c-1.497-0.102-2.516,0.986-2.497,2.492
					c0.044,3.476,0.013,6.953,0.014,10.429c0.001,1.58,0.867,2.443,2.45,2.449c0.582,0.002,0.582,0.002,0.582,0.6
					c0,2.219-0.001,4.438,0.001,6.657c0.001,1.192,0.58,1.771,1.768,1.771c8.013,0.001,16.027,0.001,24.04,0
					c1.168,0,1.755-0.583,1.757-1.745c0.002-2.256,0-4.512,0.001-6.768c0-0.512,0.002-0.511,0.52-0.515
					c0.271-0.002,0.541,0.008,0.809-0.058c0.996-0.246,1.69-1.044,1.694-2.069C187.652,438.696,187.655,434.997,187.637,431.299z
					 M159.187,417.162c5.337,0,10.674,0,16.01,0c0.548,0,0.554,0.007,0.554,0.561c0.001,2.243-0.001,4.486,0.001,6.73
					c0.001,0.811,0.249,1.059,1.06,1.059c1.91,0.001,3.821,0,5.731,0.001c0.458,0,0.479,0.021,0.481,0.483
					c0.003,0.887,0.002,1.775,0,2.662c-0.001,0.477-0.024,0.498-0.504,0.499c-3.895,0.001-7.79,0-11.684,0
					c-3.882,0-7.765,0-11.647,0c-0.55,0-0.552-0.001-0.552-0.561c-0.001-3.624-0.001-7.247,0-10.871
					C158.636,417.166,158.64,417.162,159.187,417.162z M182.472,451.579c-3.883,0.001-7.766,0-11.65,0c-3.871,0-7.742,0-11.613,0
					c-0.572,0-0.574-0.002-0.574-0.579c-0.001-1.997-0.001-3.994,0.001-5.991c0-0.464,0.023-0.486,0.478-0.487
					c7.803-0.001,15.607-0.001,23.41,0c0.478,0,0.499,0.02,0.499,0.503c0.002,1.997,0.001,3.994,0,5.991
					C183.024,451.574,183.019,451.579,182.472,451.579z"/>
			</g>
			<g>
				<path style="fill:#FFFFFF;" d="M159.779,440.669v-7.897h2.779c0.375,0,0.726,0.061,1.053,0.182
					c0.327,0.121,0.612,0.292,0.855,0.513c0.242,0.221,0.434,0.483,0.573,0.789c0.14,0.305,0.21,0.642,0.21,1.009
					c0,0.375-0.07,0.715-0.21,1.02c-0.14,0.305-0.331,0.568-0.573,0.789c-0.243,0.221-0.528,0.392-0.855,0.513
					c-0.327,0.121-0.678,0.182-1.053,0.182h-1.29v2.901H159.779z M162.58,436.356c0.39,0,0.684-0.111,0.882-0.331
					c0.199-0.22,0.298-0.474,0.298-0.761c0-0.14-0.024-0.276-0.072-0.408c-0.048-0.132-0.121-0.248-0.221-0.347
					c-0.099-0.099-0.223-0.178-0.37-0.237c-0.147-0.059-0.32-0.089-0.518-0.089h-1.312v2.173H162.58z"/>
				<path style="fill:#FFFFFF;" d="M166.308,432.771h1.731l3.177,5.294h0.088l-0.088-1.522v-3.772h1.478v7.897h-1.566l-3.353-5.592
					h-0.088l0.088,1.522v4.07h-1.467V432.771z"/>
				<path style="fill:#FFFFFF;" d="M177.922,436.334h3.872c0.022,0.089,0.04,0.195,0.055,0.32c0.014,0.125,0.022,0.25,0.022,0.375
					c0,0.507-0.077,0.985-0.231,1.434c-0.154,0.449-0.397,0.849-0.728,1.202c-0.353,0.375-0.776,0.666-1.268,0.871
					c-0.493,0.206-1.055,0.309-1.688,0.309c-0.574,0-1.114-0.103-1.622-0.309c-0.507-0.206-0.948-0.492-1.323-0.86
					c-0.375-0.367-0.673-0.803-0.894-1.307c-0.221-0.504-0.331-1.053-0.331-1.649c0-0.595,0.11-1.145,0.331-1.649
					c0.221-0.504,0.518-0.939,0.894-1.307c0.375-0.367,0.816-0.654,1.323-0.86c0.507-0.206,1.048-0.309,1.622-0.309
					c0.64,0,1.211,0.11,1.715,0.331c0.504,0.221,0.935,0.526,1.296,0.915l-1.025,1.004c-0.258-0.272-0.544-0.48-0.861-0.623
					c-0.316-0.143-0.695-0.215-1.136-0.215c-0.361,0-0.703,0.065-1.026,0.193c-0.324,0.129-0.607,0.311-0.85,0.546
					c-0.242,0.235-0.436,0.52-0.579,0.855c-0.143,0.335-0.215,0.708-0.215,1.119c0,0.412,0.072,0.785,0.215,1.12
					c0.143,0.335,0.338,0.62,0.584,0.855c0.246,0.235,0.531,0.418,0.855,0.546c0.323,0.129,0.669,0.193,1.037,0.193
					c0.419,0,0.773-0.061,1.064-0.182c0.29-0.121,0.538-0.278,0.744-0.469c0.148-0.132,0.275-0.3,0.381-0.502
					c0.106-0.202,0.189-0.428,0.248-0.678h-2.482V436.334z"/>
			</g>
			<g>
				<path style="fill:#FFFFFF;" d="M224.019,431.299c-0.006-1.224-0.959-2.121-2.189-2.14c-0.924-0.014-0.832,0.12-0.834-0.867
					c-0.003-1.097-0.007-2.194,0.003-3.292c0.003-0.379-0.112-0.691-0.362-0.976c-2.342-2.668-4.678-5.342-7.019-8.011
					c-0.12-0.137-0.275-0.244-0.414-0.366c-6.214,0-12.427,0-18.641,0c-0.794,0.293-1.14,0.868-1.138,1.709
					c0.01,3.748,0.004,7.496,0.004,11.243c0,0.556-0.003,0.589-0.55,0.551c-1.497-0.102-2.516,0.986-2.497,2.492
					c0.044,3.476,0.013,6.953,0.014,10.429c0.001,1.58,0.867,2.443,2.45,2.449c0.582,0.002,0.582,0.002,0.582,0.6
					c0,2.219-0.001,4.438,0.001,6.657c0.001,1.192,0.58,1.771,1.768,1.771c8.013,0.001,16.027,0.001,24.04,0
					c1.168,0,1.755-0.583,1.757-1.745c0.002-2.256,0-4.512,0.001-6.768c0-0.512,0.002-0.511,0.52-0.515
					c0.271-0.002,0.541,0.008,0.809-0.058c0.997-0.246,1.69-1.044,1.694-2.069C224.034,438.696,224.036,434.997,224.019,431.299z
					 M195.568,417.162c5.337,0,10.674,0,16.01,0c0.548,0,0.554,0.007,0.554,0.561c0.001,2.243-0.001,4.486,0.001,6.73
					c0.001,0.811,0.249,1.059,1.06,1.059c1.91,0.001,3.821,0,5.731,0.001c0.458,0,0.479,0.021,0.481,0.483
					c0.003,0.887,0.002,1.775,0,2.662c-0.001,0.477-0.024,0.498-0.504,0.499c-3.895,0.001-7.79,0-11.684,0
					c-3.882,0-7.765,0-11.647,0c-0.55,0-0.552-0.001-0.552-0.561c-0.001-3.624-0.001-7.247,0-10.871
					C195.018,417.166,195.022,417.162,195.568,417.162z M218.854,451.579c-3.883,0.001-7.766,0-11.65,0c-3.871,0-7.742,0-11.613,0
					c-0.572,0-0.574-0.002-0.574-0.579c-0.001-1.997-0.001-3.994,0.001-5.991c0-0.464,0.023-0.486,0.478-0.487
					c7.803-0.001,15.607-0.001,23.41,0c0.478,0,0.499,0.02,0.499,0.503c0.002,1.997,0.001,3.994,0,5.991
					C219.406,451.574,219.401,451.579,218.854,451.579z"/>
			</g>
			<g>
				<path style="fill:#FFFFFF;" d="M205.111,432.771h1.699l2.967,7.897h-1.644l-0.651-1.886h-3.044l-0.651,1.886h-1.643
					L205.111,432.771z M206.997,437.415l-0.706-1.974l-0.287-0.96h-0.088l-0.287,0.96l-0.706,1.974H206.997z"/>
				<path style="fill:#FFFFFF;" d="M211.331,434.536c-0.125,0-0.245-0.024-0.359-0.072c-0.114-0.048-0.213-0.114-0.298-0.199
					c-0.084-0.084-0.151-0.182-0.198-0.292c-0.048-0.11-0.072-0.232-0.072-0.364s0.024-0.254,0.072-0.364
					c0.048-0.11,0.114-0.208,0.198-0.292c0.084-0.084,0.184-0.151,0.298-0.198c0.114-0.048,0.233-0.072,0.359-0.072
					c0.257,0,0.478,0.09,0.662,0.27c0.184,0.181,0.276,0.399,0.276,0.656s-0.092,0.476-0.276,0.656
					C211.809,434.446,211.589,434.536,211.331,434.536z M210.615,440.669v-5.404h1.445v5.404H210.615z"/>
			</g>
			<g>
				<path style="fill:#FFFFFF;" d="M261.044,431.299c-0.006-1.224-0.959-2.121-2.189-2.14c-0.924-0.014-0.832,0.12-0.834-0.867
					c-0.003-1.097-0.007-2.194,0.003-3.292c0.003-0.379-0.112-0.691-0.362-0.976c-2.342-2.668-4.678-5.342-7.019-8.011
					c-0.12-0.137-0.275-0.244-0.414-0.366c-6.214,0-12.427,0-18.641,0c-0.794,0.293-1.14,0.868-1.138,1.709
					c0.01,3.748,0.004,7.496,0.004,11.243c0,0.556-0.003,0.589-0.55,0.551c-1.497-0.102-2.516,0.986-2.497,2.492
					c0.044,3.476,0.013,6.953,0.014,10.429c0.001,1.58,0.867,2.443,2.45,2.449c0.582,0.002,0.582,0.002,0.582,0.6
					c0,2.219-0.001,4.438,0.001,6.657c0.001,1.192,0.58,1.771,1.768,1.771c8.013,0.001,16.027,0.001,24.04,0
					c1.168,0,1.755-0.583,1.757-1.745c0.002-2.256,0-4.512,0.001-6.768c0-0.512,0.002-0.511,0.52-0.515
					c0.271-0.002,0.541,0.008,0.809-0.058c0.996-0.246,1.69-1.044,1.694-2.069C261.059,438.696,261.061,434.997,261.044,431.299z
					 M232.593,417.162c5.337,0,10.674,0,16.01,0c0.548,0,0.554,0.007,0.554,0.561c0.001,2.243-0.001,4.486,0.001,6.73
					c0.001,0.811,0.249,1.059,1.06,1.059c1.91,0.001,3.821,0,5.731,0.001c0.458,0,0.479,0.021,0.481,0.483
					c0.003,0.887,0.002,1.775,0,2.662c-0.001,0.477-0.024,0.498-0.504,0.499c-3.895,0.001-7.79,0-11.684,0
					c-3.882,0-7.765,0-11.647,0c-0.55,0-0.552-0.001-0.552-0.561c-0.001-3.624-0.001-7.247,0-10.871
					C232.042,417.166,232.047,417.162,232.593,417.162z M255.878,451.579c-3.883,0.001-7.766,0-11.65,0c-3.871,0-7.742,0-11.613,0
					c-0.572,0-0.574-0.002-0.574-0.579c-0.001-1.997-0.001-3.994,0.001-5.991c0-0.464,0.023-0.486,0.478-0.487
					c7.803-0.001,15.607-0.001,23.41,0c0.478,0,0.499,0.02,0.499,0.503c0.002,1.997,0.001,3.994,0,5.991
					C256.431,451.574,256.426,451.579,255.878,451.579z"/>
			</g>
			<g>
				<path style="fill:#FFFFFF;" d="M236.361,440.845c-0.338,0-0.662-0.048-0.971-0.143c-0.309-0.095-0.592-0.239-0.849-0.43
					c-0.257-0.191-0.481-0.425-0.673-0.7c-0.191-0.276-0.342-0.597-0.452-0.965l1.401-0.551c0.103,0.397,0.283,0.726,0.54,0.987
					c0.257,0.261,0.596,0.392,1.015,0.392c0.154,0,0.303-0.02,0.447-0.061c0.143-0.04,0.272-0.099,0.386-0.176
					s0.204-0.175,0.27-0.292c0.066-0.118,0.099-0.254,0.099-0.408c0-0.147-0.026-0.279-0.077-0.397
					c-0.051-0.117-0.138-0.227-0.259-0.331c-0.121-0.103-0.28-0.202-0.475-0.298c-0.195-0.095-0.435-0.195-0.722-0.298l-0.485-0.176
					c-0.213-0.073-0.429-0.173-0.645-0.298c-0.217-0.125-0.413-0.276-0.59-0.452c-0.177-0.176-0.322-0.384-0.436-0.623
					c-0.114-0.239-0.171-0.509-0.171-0.81c0-0.309,0.06-0.597,0.182-0.866c0.121-0.268,0.294-0.503,0.518-0.706
					c0.224-0.202,0.492-0.36,0.805-0.474s0.66-0.171,1.042-0.171c0.397,0,0.74,0.053,1.031,0.16
					c0.291,0.107,0.537,0.243,0.739,0.408c0.202,0.165,0.366,0.348,0.491,0.546c0.125,0.199,0.217,0.386,0.276,0.563l-1.312,0.551
					c-0.074-0.221-0.208-0.419-0.402-0.596c-0.195-0.176-0.462-0.265-0.8-0.265c-0.324,0-0.592,0.075-0.805,0.226
					c-0.213,0.151-0.32,0.348-0.32,0.59c0,0.235,0.103,0.436,0.309,0.601c0.206,0.165,0.533,0.325,0.982,0.48l0.497,0.165
					c0.316,0.111,0.605,0.237,0.866,0.381c0.261,0.143,0.485,0.314,0.673,0.513c0.187,0.199,0.331,0.425,0.43,0.678
					c0.1,0.254,0.149,0.546,0.149,0.877c0,0.412-0.083,0.767-0.248,1.064c-0.165,0.298-0.377,0.542-0.634,0.734
					c-0.258,0.191-0.548,0.335-0.872,0.43C236.986,440.797,236.67,440.845,236.361,440.845z"/>
				<path style="fill:#FFFFFF;" d="M239.516,432.771h1.61l1.633,4.754l0.287,1.015h0.088l0.309-1.015l1.699-4.754h1.61l-2.879,7.897
					h-1.566L239.516,432.771z"/>
				<path style="fill:#FFFFFF;" d="M251.097,436.334h3.871c0.022,0.089,0.04,0.195,0.055,0.32c0.015,0.125,0.023,0.25,0.023,0.375
					c0,0.507-0.078,0.985-0.232,1.434c-0.154,0.449-0.397,0.849-0.728,1.202c-0.353,0.375-0.775,0.666-1.268,0.871
					c-0.493,0.206-1.055,0.309-1.688,0.309c-0.574,0-1.114-0.103-1.621-0.309c-0.507-0.206-0.949-0.492-1.324-0.86
					c-0.375-0.367-0.673-0.803-0.894-1.307c-0.22-0.504-0.331-1.053-0.331-1.649c0-0.595,0.11-1.145,0.331-1.649
					c0.221-0.504,0.518-0.939,0.894-1.307c0.375-0.367,0.816-0.654,1.324-0.86c0.507-0.206,1.047-0.309,1.621-0.309
					c0.64,0,1.211,0.11,1.715,0.331c0.504,0.221,0.936,0.526,1.296,0.915l-1.026,1.004c-0.257-0.272-0.544-0.48-0.861-0.623
					c-0.316-0.143-0.694-0.215-1.136-0.215c-0.36,0-0.702,0.065-1.026,0.193c-0.323,0.129-0.607,0.311-0.849,0.546
					c-0.243,0.235-0.436,0.52-0.579,0.855c-0.143,0.335-0.215,0.708-0.215,1.119c0,0.412,0.072,0.785,0.215,1.12
					c0.143,0.335,0.338,0.62,0.585,0.855c0.246,0.235,0.531,0.418,0.854,0.546c0.324,0.129,0.669,0.193,1.037,0.193
					c0.419,0,0.774-0.061,1.064-0.182c0.29-0.121,0.539-0.278,0.745-0.469c0.147-0.132,0.274-0.3,0.38-0.502
					c0.107-0.202,0.189-0.428,0.248-0.678h-2.482V436.334z"/>
			</g>
			<g>
				<path style="fill:#FFFFFF;" d="M297.3,431.299c-0.006-1.224-0.959-2.121-2.189-2.14c-0.924-0.014-0.832,0.12-0.834-0.867
					c-0.003-1.097-0.007-2.194,0.003-3.292c0.003-0.379-0.112-0.691-0.362-0.976c-2.342-2.668-4.678-5.342-7.019-8.011
					c-0.12-0.137-0.275-0.244-0.414-0.366c-6.214,0-12.427,0-18.641,0c-0.794,0.293-1.14,0.868-1.138,1.709
					c0.01,3.748,0.004,7.496,0.004,11.243c0,0.556-0.003,0.589-0.55,0.551c-1.497-0.102-2.516,0.986-2.497,2.492
					c0.044,3.476,0.013,6.953,0.014,10.429c0.001,1.58,0.867,2.443,2.45,2.449c0.582,0.002,0.582,0.002,0.582,0.6
					c0,2.219-0.001,4.438,0.001,6.657c0.001,1.192,0.58,1.771,1.768,1.771c8.013,0.001,16.027,0.001,24.04,0
					c1.168,0,1.755-0.583,1.757-1.745c0.002-2.256,0-4.512,0.001-6.768c0-0.512,0.002-0.511,0.52-0.515
					c0.271-0.002,0.541,0.008,0.809-0.058c0.996-0.246,1.69-1.044,1.694-2.069C297.315,438.696,297.318,434.997,297.3,431.299z
					 M268.85,417.162c5.337,0,10.674,0,16.01,0c0.548,0,0.554,0.007,0.554,0.561c0.001,2.243-0.001,4.486,0.001,6.73
					c0.001,0.811,0.249,1.059,1.06,1.059c1.91,0.001,3.821,0,5.731,0.001c0.458,0,0.479,0.021,0.481,0.483
					c0.003,0.887,0.002,1.775,0,2.662c-0.001,0.477-0.024,0.498-0.504,0.499c-3.895,0.001-7.79,0-11.684,0
					c-3.882,0-7.765,0-11.647,0c-0.55,0-0.552-0.001-0.552-0.561c-0.001-3.624-0.001-7.247,0-10.871
					C268.299,417.166,268.303,417.162,268.85,417.162z M292.135,451.579c-3.883,0.001-7.766,0-11.65,0c-3.871,0-7.742,0-11.613,0
					c-0.572,0-0.574-0.002-0.574-0.579c-0.001-1.997-0.001-3.994,0.001-5.991c0-0.464,0.023-0.486,0.478-0.487
					c7.803-0.001,15.607-0.001,23.41,0c0.478,0,0.499,0.02,0.499,0.503c0.001,1.997,0.001,3.994,0,5.991
					C292.687,451.574,292.682,451.579,292.135,451.579z"/>
			</g>
			<g>
				<path style="fill:#FFFFFF;" d="M272.966,434.183v1.831h3.165v1.412h-3.165v1.831h3.518v1.412h-5.007v-7.897h5.007v1.412H272.966
					z"/>
				<path style="fill:#FFFFFF;" d="M277.852,440.669v-7.897h2.779c0.375,0,0.726,0.061,1.053,0.182
					c0.327,0.121,0.612,0.292,0.855,0.513c0.243,0.221,0.434,0.483,0.574,0.789c0.14,0.305,0.209,0.642,0.209,1.009
					c0,0.375-0.07,0.715-0.209,1.02c-0.14,0.305-0.331,0.568-0.574,0.789c-0.243,0.221-0.528,0.392-0.855,0.513
					c-0.327,0.121-0.678,0.182-1.053,0.182h-1.29v2.901H277.852z M280.653,436.356c0.389,0,0.684-0.111,0.882-0.331
					c0.199-0.22,0.298-0.474,0.298-0.761c0-0.14-0.024-0.276-0.072-0.408c-0.048-0.132-0.121-0.248-0.221-0.347
					c-0.099-0.099-0.222-0.178-0.37-0.237c-0.147-0.059-0.32-0.089-0.518-0.089h-1.312v2.173H280.653z"/>
				<path style="fill:#FFFFFF;" d="M286.797,440.845c-0.338,0-0.662-0.048-0.971-0.143c-0.309-0.095-0.592-0.239-0.849-0.43
					c-0.257-0.191-0.482-0.425-0.673-0.7c-0.191-0.276-0.342-0.597-0.452-0.965l1.401-0.551c0.103,0.397,0.283,0.726,0.541,0.987
					c0.257,0.261,0.595,0.392,1.015,0.392c0.154,0,0.303-0.02,0.447-0.061c0.143-0.04,0.272-0.099,0.386-0.176
					c0.114-0.077,0.204-0.175,0.27-0.292c0.066-0.118,0.1-0.254,0.1-0.408c0-0.147-0.026-0.279-0.077-0.397
					c-0.051-0.117-0.138-0.227-0.259-0.331c-0.121-0.103-0.279-0.202-0.474-0.298c-0.195-0.095-0.436-0.195-0.723-0.298
					l-0.485-0.176c-0.213-0.073-0.428-0.173-0.645-0.298c-0.217-0.125-0.414-0.276-0.59-0.452c-0.176-0.176-0.322-0.384-0.436-0.623
					c-0.114-0.239-0.171-0.509-0.171-0.81c0-0.309,0.061-0.597,0.182-0.866c0.121-0.268,0.294-0.503,0.518-0.706
					c0.224-0.202,0.493-0.36,0.805-0.474c0.312-0.114,0.66-0.171,1.042-0.171c0.397,0,0.741,0.053,1.031,0.16
					c0.29,0.107,0.537,0.243,0.739,0.408c0.202,0.165,0.365,0.348,0.491,0.546c0.125,0.199,0.217,0.386,0.276,0.563l-1.312,0.551
					c-0.074-0.221-0.208-0.419-0.403-0.596c-0.195-0.176-0.462-0.265-0.799-0.265c-0.324,0-0.592,0.075-0.805,0.226
					c-0.213,0.151-0.32,0.348-0.32,0.59c0,0.235,0.103,0.436,0.309,0.601c0.206,0.165,0.533,0.325,0.982,0.48l0.496,0.165
					c0.316,0.111,0.605,0.237,0.866,0.381c0.261,0.143,0.485,0.314,0.673,0.513c0.187,0.199,0.331,0.425,0.43,0.678
					c0.099,0.254,0.149,0.546,0.149,0.877c0,0.412-0.083,0.767-0.248,1.064c-0.165,0.298-0.377,0.542-0.634,0.734
					c-0.258,0.191-0.548,0.335-0.872,0.43C287.422,440.797,287.105,440.845,286.797,440.845z"/>
			</g>
			<g>
				<path style="fill:#FFFFFF;" d="M321.394,439.168l4.004-4.985h-3.827v-1.412h5.559v1.5l-3.96,4.985h4.004v1.412h-5.779V439.168z"
					/>
				<path style="fill:#FFFFFF;" d="M328.409,432.771h1.489v7.897h-1.489V432.771z"/>
				<path style="fill:#FFFFFF;" d="M331.486,440.669v-7.897h2.779c0.375,0,0.726,0.061,1.053,0.182
					c0.327,0.121,0.612,0.292,0.855,0.513s0.434,0.483,0.574,0.789c0.14,0.305,0.209,0.642,0.209,1.009
					c0,0.375-0.07,0.715-0.209,1.02c-0.14,0.305-0.331,0.568-0.574,0.789c-0.243,0.221-0.528,0.392-0.855,0.513
					c-0.327,0.121-0.678,0.182-1.053,0.182h-1.29v2.901H331.486z M334.288,436.356c0.389,0,0.684-0.111,0.882-0.331
					c0.199-0.22,0.298-0.474,0.298-0.761c0-0.14-0.024-0.276-0.072-0.408c-0.048-0.132-0.121-0.248-0.221-0.347
					c-0.099-0.099-0.222-0.178-0.37-0.237c-0.147-0.059-0.32-0.089-0.518-0.089h-1.312v2.173H334.288z"/>
			</g>
		</g>
		<g style="opacity:0.61;">
			<path style="fill:#FFFFFF;" d="M300.133,433.27h9.067v2.242h-9.067V433.27z M300.133,437.136h9.067v2.243h-9.067V437.136z"/>
		</g>
	</g>
	<g style="opacity:0.61;">
		<path style="fill:#FFFFFF;" d="M156.756,478.878h1.607c1.263,0,2.114,0.812,2.114,1.974c0,1.161-0.851,1.973-2.114,1.973h-1.607
			V478.878z M158.34,482.464c1.049,0,1.725-0.665,1.725-1.612c0-0.947-0.677-1.613-1.725-1.613h-1.167v3.225H158.34z"/>
		<path style="fill:#FFFFFF;" d="M165.139,480.851c0-1.15,0.879-2.007,2.075-2.007c1.184,0,2.069,0.851,2.069,2.007
			c0,1.156-0.885,2.007-2.069,2.007C166.019,482.858,165.139,482.002,165.139,480.851z M168.866,480.851
			c0-0.942-0.705-1.635-1.652-1.635c-0.953,0-1.663,0.693-1.663,1.635c0,0.941,0.71,1.635,1.663,1.635
			C168.162,482.486,168.866,481.793,168.866,480.851z"/>
		<path style="fill:#FFFFFF;" d="M179.596,478.878l-1.331,3.947h-0.44l-1.156-3.366l-1.161,3.366h-0.434l-1.331-3.947h0.429
			l1.139,3.394l1.178-3.394h0.389l1.161,3.411l1.156-3.411H179.596z"/>
		<path style="fill:#FFFFFF;" d="M187.731,478.878v3.947h-0.344l-2.537-3.202v3.202h-0.417v-3.947h0.344l2.543,3.203v-3.203H187.731
			z"/>
		<path style="fill:#FFFFFF;" d="M193.093,478.878h0.417v3.586h2.21v0.361h-2.627V478.878z"/>
		<path style="fill:#FFFFFF;" d="M200.061,480.851c0-1.15,0.879-2.007,2.075-2.007c1.184,0,2.069,0.851,2.069,2.007
			c0,1.156-0.885,2.007-2.069,2.007C200.941,482.858,200.061,482.002,200.061,480.851z M203.788,480.851
			c0-0.942-0.705-1.635-1.652-1.635c-0.953,0-1.663,0.693-1.663,1.635c0,0.941,0.71,1.635,1.663,1.635
			C203.083,482.486,203.788,481.793,203.788,480.851z"/>
		<path style="fill:#FFFFFF;" d="M211.636,481.77h-2.199l-0.474,1.054h-0.434l1.804-3.947h0.412l1.804,3.947h-0.44L211.636,481.77z
			 M211.484,481.432l-0.947-2.12l-0.947,2.12H211.484z"/>
		<path style="fill:#FFFFFF;" d="M217.28,478.878h1.607c1.263,0,2.114,0.812,2.114,1.974c0,1.161-0.851,1.973-2.114,1.973h-1.607
			V478.878z M218.864,482.464c1.049,0,1.725-0.665,1.725-1.612c0-0.947-0.677-1.613-1.725-1.613h-1.167v3.225H218.864z"/>
		<path style="fill:#FFFFFF;" d="M234.041,481.77h-2.199l-0.474,1.054h-0.434l1.804-3.947h0.412l1.804,3.947h-0.44L234.041,481.77z
			 M233.889,481.432l-0.947-2.12l-0.947,2.12H233.889z"/>
		<path style="fill:#FFFFFF;" d="M239.685,478.878h0.417v3.586h2.21v0.361h-2.627V478.878z"/>
		<path style="fill:#FFFFFF;" d="M247.082,478.878h0.417v3.586h2.21v0.361h-2.627V478.878z"/>
		<path style="fill:#FFFFFF;" d="M260.449,479.239v1.551h2.041v0.361h-2.041v1.675h-0.417v-3.947h2.706v0.361H260.449z"/>
		<path style="fill:#FFFFFF;" d="M267.678,478.878h0.417v3.947h-0.417V478.878z"/>
		<path style="fill:#FFFFFF;" d="M273.456,478.878h0.417v3.586h2.21v0.361h-2.627V478.878z"/>
		<path style="fill:#FFFFFF;" d="M283.644,482.464v0.361h-2.791v-3.947h2.706v0.361h-2.289v1.404h2.041v0.355h-2.041v1.466H283.644z
			"/>
		<path style="fill:#FFFFFF;" d="M294.672,479.239v1.551h2.041v0.361h-2.041v1.675h-0.417v-3.947h2.706v0.361H294.672z"/>
		<path style="fill:#FFFFFF;" d="M301.5,480.851c0-1.15,0.879-2.007,2.075-2.007c1.184,0,2.069,0.851,2.069,2.007
			c0,1.156-0.885,2.007-2.069,2.007C302.379,482.858,301.5,482.002,301.5,480.851z M305.226,480.851
			c0-0.942-0.705-1.635-1.652-1.635c-0.953,0-1.663,0.693-1.663,1.635c0,0.941,0.71,1.635,1.663,1.635
			C304.522,482.486,305.226,481.793,305.226,480.851z"/>
		<path style="fill:#FFFFFF;" d="M313.351,482.825l-0.902-1.269c-0.102,0.011-0.203,0.017-0.316,0.017h-1.06v1.252h-0.417v-3.947
			h1.477c1.004,0,1.613,0.507,1.613,1.353c0,0.62-0.327,1.054-0.902,1.24l0.964,1.353H313.351z M313.328,480.231
			c0-0.632-0.417-0.992-1.207-0.992h-1.048v1.979h1.048C312.911,481.218,313.328,480.851,313.328,480.231z"/>
		<path style="fill:#FFFFFF;" d="M322.907,478.878v3.947h-0.4v-3.158l-1.551,2.656h-0.197l-1.551-2.639v3.14h-0.4v-3.947h0.344
			l1.714,2.926l1.697-2.926H322.907z"/>
		<path style="fill:#FFFFFF;" d="M330.744,481.77h-2.199l-0.473,1.054h-0.434l1.804-3.947h0.411l1.804,3.947h-0.44L330.744,481.77z
			 M330.592,481.432l-0.947-2.12l-0.947,2.12H330.592z"/>
		<path style="fill:#FFFFFF;" d="M336.957,479.239h-1.387v-0.361h3.192v0.361h-1.387v3.586h-0.417V479.239z"/>
		<path style="fill:#FFFFFF;" d="M343.063,482.346l0.164-0.321c0.282,0.276,0.784,0.479,1.302,0.479c0.739,0,1.06-0.31,1.06-0.699
			c0-1.083-2.43-0.417-2.43-1.877c0-0.581,0.451-1.083,1.455-1.083c0.446,0,0.908,0.13,1.224,0.35l-0.141,0.333
			c-0.338-0.22-0.733-0.327-1.083-0.327c-0.722,0-1.043,0.321-1.043,0.716c0,1.083,2.43,0.429,2.43,1.866
			c0,0.581-0.462,1.077-1.472,1.077C343.937,482.858,343.356,482.65,343.063,482.346z"/>
	</g>
</g>
<g>
</g>
<g>
	<path style="fill:#CF381E;" d="M320.706,291.429c17.778,0,32.185-14.493,32.185-32.375l-0.007-78.276
		c0-17.883-14.416-32.379-32.189-32.379h-78.641c-17.779,0-32.193,14.496-32.193,32.379l0.017,78.276
		c0,17.877,14.412,32.375,32.189,32.375H320.706z"/>
	<path style="fill:#FFFFFF;" d="M298.432,224.314c-2.954,10.19,1.9,20.28,12.283,16.188c-2.954,7.33-7.997,18.281-7.997,29.611
		c0,0-0.159,7.676,5.589,9.565c0,0,7.87,1.935,6.209-5.109c0,0-2.22-7.133-1.07-13.274c2.586-13.809,8.703-27.322,8.703-27.322
		s12.143-25.032,18.94-36.676c0,0,3.079-6.011-3.16-6.011c-1.997,0-3.127,0.842-4.555,2.368l-16.851,30.276
		c-2.571,4.667-5.048,6.193-6.953,6.193c-4.283,0-3.425-6.953-2.759-9.331c4.001-15.619,8.656-23.186,9.14-24.276
		c2.955-6.655-3.16-7.273-3.16-7.273c-3.844-0.976-6.721,5.301-6.721,5.301l-6.781,13.797c-2.118,3.892-11.491,18.708-14.422,21.936
		c0,0-0.87,1.213-1.576,0.675c-0.367-0.28-0.286-1.662-0.286-1.662c0.384-9.616,5.622-27.612,5.622-27.612
		c0.092-0.572,0.188-1.143,0.188-1.62c0-2.857-1.334-4.665-4.189-4.951c-2.949-0.286-4.476,1.143-7.139,4.379
		c-5.906,7.331-12.953,18.282-16.284,23.33c-0.379,0.567-1.047,0.379-1.047-0.383c0-2.284,7.937-26.653,7.937-26.653
		s0.934-3.339-1.79-4.495c0,0-4.089-2.571-7.557,2.525l-16.102,22.017c-1.264,1.686-1.891,1.062-1.891,1.062
		c-0.394-0.2-0.14-1.456-0.14-1.456l2.539-14.352c2.033-11.034-1.839-11.615-4.259-11.941c-2.42-0.326-5.324,1.497-5.324,1.497
		c-5.033,2.526-8.831,12.579-8.831,12.579s-1.138,3.577,1.26,4.955c0,0,0.911,0.757,2.68,0.692c3.515-0.129,4.247-6.831,6.818-6.831
		c0.477,0,0.477,0.571,0.477,0.667l-8.315,34.991c0,0-0.953,3.465,2.08,5.319c3.876,2.37,6.387-1.569,6.387-1.569l2.908-4.701
		c4.44-7.777,12.487-18.925,13.343-18.925c0.286,0,0.38,0.098,0.38,0.379l-2.843,20.506c0,0-0.613,3.394,2.389,4.507
		c0,0,2.93,1.027,4.616-0.332c0,0,2.098-1.421,4.19-4.853c1.613-2.645,9.722-12.189,14.671-20.947
		c0.384-0.572,0.668-0.096,0.572,0.382c-0.95,4.569-1.78,16.874-1.892,19.824c-0.231,6.091,4.336,6.647,4.526,6.647
		c0,0,3.763,0.879,7.582-3.608L298.432,224.314z"/>
	<path style="fill:#174880;" d="M56.472,237.863h-8.917v-20.072c0-2.86-0.455-4.996-1.36-6.404c-0.908-1.408-2.44-2.114-4.604-2.114
		c-1.575,0-3.017,0.389-4.327,1.168c-1.313,0.782-2.426,1.89-3.346,3.328v24.094H25V201.41h5.079l3.352,4.904
		c0.72-0.655,1.812-1.482,2.697-2.054c0.886-0.571,1.82-1.075,2.805-1.502c0.982-0.427,2.016-0.761,3.098-1.011
		c1.082-0.248,2.192-0.371,3.329-0.371c1.308,0,2.464,0.138,3.455,0.419c0.997,0.277,1.875,0.684,2.64,1.222
		c0.765,0.534,1.434,1.178,2.002,1.932c0.569,0.759,1.068,1.613,1.506,2.567c0.7-0.699,1.492-1.413,2.378-2.146
		c0.885-0.733,1.863-1.395,2.935-1.988c1.072-0.593,2.239-1.075,3.508-1.447c1.269-0.373,2.643-0.559,4.132-0.559
		c2.009,0,3.717,0.41,5.13,1.228c1.41,0.82,2.557,1.953,3.443,3.404c0.885,1.45,1.526,3.176,1.932,5.176
		c0.404,2.002,0.607,4.183,0.607,6.542v20.139h-8.917v-20.072c0-2.86-0.448-4.996-1.344-6.404c-0.895-1.408-2.395-2.114-4.489-2.114
		c-1.575,0-3.018,0.367-4.331,1.098c-1.31,0.732-2.467,1.862-3.472,3.399V237.863z"/>
	<path style="fill:#174880;" d="M108.43,233.85c-1.03,1.12-2.646,2.167-4.472,2.922c-1.826,0.75-4.007,1.129-6.54,1.129
		c-1.77,0-3.366-0.282-4.789-0.852c-1.42-0.565-2.635-1.361-3.652-2.387c-1.016-1.026-1.798-2.236-2.347-3.636
		c-0.544-1.403-0.816-2.931-0.816-4.595c0-6.792,5.251-11.108,13.665-11.108h8.886v-2.015c0-1.244-0.627-2.223-1.884-2.932
		c-1.255-0.709-3.184-1.069-5.785-1.069c-2.426,0-4.673,0.256-6.736,0.765c-2.064,0.506-3.208,0.934-4.979,1.664l-1.102-7.608
		c0.654-0.288,1.453-0.592,2.394-0.912c0.937-0.321,1.989-0.618,3.146-0.894c1.159-0.271,2.416-0.501,3.77-0.679
		c1.353-0.181,2.776-0.267,4.261-0.267c5.157,0,9.031,1.262,11.622,3.791c2.587,2.524,3.883,6.115,3.883,10.77v21.927h-6.354
		L108.43,233.85z M108.433,221.294h-8c-2.14,0-3.704,0.505-4.69,1.327c-0.982,0.82-1.475,1.967-1.475,3.434
		c0,1.4,0.416,2.479,1.247,3.239c0.831,0.755,2.098,1.139,3.8,1.139c1.03,0,2.006-0.138,2.936-0.411
		c0.929-0.275,1.787-0.643,2.573-1.109c0.786-0.466,1.485-1.017,2.098-1.662c0.609-0.643,1.113-1.322,1.508-2.036V221.294z"/>
	<polygon style="fill:#174880;" points="159.131,200.867 144.591,219.103 161.129,237.863 149.918,237.863 134.626,219.354 
		134.626,237.863 125.71,237.863 125.71,187.829 134.626,187.829 134.626,219.354 148.247,200.867 	"/>
	<path style="fill:#174880;" d="M180.635,230.04c1.574,0,3.001-0.128,4.279-0.376c1.279-0.248,2.443-0.579,3.491-0.983
		c1.051-0.406,2.002-0.879,2.853-1.412c0.852-0.537,0.555-0.282,1.254-0.833l1.72,7.876c-1.575,1.003-3.8,1.892-6.041,2.569
		c-2.239,0.68-4.788,1.022-7.652,1.022c-3.125,0-5.892-0.439-8.294-1.311c-2.405-0.875-4.434-2.1-6.085-3.686
		c-1.647-1.586-2.901-3.489-3.752-5.718c-0.851-2.229-1.279-4.699-1.279-7.409c0-2.504,0.389-4.871,1.164-7.1
		c0.775-2.23,1.913-4.18,3.408-5.858c1.498-1.678,3.35-3.004,5.557-3.981c2.21-0.974,4.755-1.464,7.64-1.464
		c2.908,0,5.412,0.464,7.524,1.39c2.106,0.928,3.845,2.162,5.21,3.703c1.368,1.544,2.377,3.315,3.036,5.316
		c0.655,1.999,0.896,4.073,0.896,6.221c0,0.579-0.034,1.244-0.1,1.991c-0.066,0.747-0.151,1.382-0.262,1.895h-24.859
		c0.13,1.26,0.458,2.394,0.982,3.393c0.524,1.003,1.23,1.855,2.115,2.557c0.886,0.703,1.934,1.244,3.146,1.625
		C177.798,229.85,179.15,230.04,180.635,230.04 M178.964,209.238c-1.179,0-2.251,0.145-3.215,0.439
		c-0.961,0.292-1.802,0.709-2.521,1.244c-0.72,0.538-1.313,1.186-1.772,1.945c-0.458,0.766-0.774,1.604-0.95,2.519h15.835
		c0-0.82-0.148-1.605-0.444-2.356c-0.293-0.753-0.747-1.406-1.361-1.96c-0.61-0.559-1.381-1.002-2.308-1.334
		C181.296,209.404,180.211,209.238,178.964,209.238"/>
	<path style="fill:#174880;" d="M361.659,206.582l12.047-14.338h2.642v9.167h10.293v7.936h-10.293v14.94
		c0,1.038,0.124,1.905,0.377,2.598c0.248,0.689,0.597,1.24,1.035,1.657c0.434,0.413,0.936,0.705,1.503,0.881
		c0.569,0.172,1.173,0.257,1.804,0.257c1.18,0,2.224-0.112,3.129-0.34c0.909-0.225,1.715-0.512,2.413-0.852v7.945
		c-0.964,0.48-1.974,0.842-3.032,1.093c-1.061,0.253-2.355,0.376-3.886,0.376c-2.162,0-4.021-0.255-5.571-0.769
		c-1.552-0.514-2.821-1.253-3.801-2.231c-0.99-0.98-1.715-2.169-2.183-3.565c-0.468-1.396-0.707-2.977-0.707-4.747v-17.244h-5.769
		V206.582z"/>
	<path style="fill:#174880;" d="M401.846,208.922c1.203-2.184,3.356-4.288,5.137-5.593c1.779-1.302,3.918-1.954,6.407-1.954
		c0.852,0,1.55,0.043,2.084,0.128c0.535,0.084,0.944,0.166,1.228,0.238c0,0-0.285,2.062-1.639,8.359
		c-0.548-0.121-1.203-0.183-1.969-0.183c-1.683,0-3.182,0.289-4.506,0.871c-1.322,0.582-2.442,1.421-3.358,2.511
		c-0.916,1.093-1.623,2.434-2.114,4.015c-0.496,1.582-0.739,3.373-0.739,5.371v15.178h-8.918V201.41h5.714L401.846,208.922z"/>
	<path style="fill:#174880;" d="M459.561,201.375c2.688,0,5.002,0.514,6.932,1.53c1.938,1.024,3.537,2.392,4.802,4.104
		c1.269,1.713,2.204,3.687,2.805,5.93c0.599,2.236,0.9,4.565,0.9,6.974c0,2.46-0.317,4.772-0.95,6.946
		c-0.634,2.172-1.589,4.077-2.867,5.72c-1.279,1.639-2.869,2.938-4.772,3.893c-1.898,0.955-4.127,1.43-6.687,1.43
		c-2.49,0-4.593-0.363-6.31-1.093c-1.715-0.723-3.218-1.791-4.506-3.197l-0.131,0.076v18.903h-8.916V201.41h5.332l3.407,4.44
		c1.292-1.32,3.129-2.603,4.912-3.351C455.296,201.749,457.306,201.375,459.561,201.375 M457.233,209.346
		c-1.134,0-2.165,0.168-3.081,0.506c-0.916,0.335-1.726,0.772-2.426,1.312c-0.701,0.535-1.3,1.149-1.802,1.834
		c-0.503,0.682-0.911,1.384-1.212,2.102v10.352c0.346,0.624,0.803,1.217,1.356,1.777c0.558,0.558,1.185,1.049,1.887,1.474
		c0.7,0.425,1.478,0.764,2.344,1.024c0.863,0.255,1.786,0.383,2.771,0.383c1.506,0,2.814-0.246,3.916-0.739
		c1.104-0.489,2.02-1.177,2.755-2.059c0.732-0.886,1.276-1.947,1.623-3.188c0.349-1.24,0.523-2.61,0.523-4.11
		c0-1.564-0.207-3.001-0.624-4.311c-0.413-1.31-1-2.432-1.767-3.371c-0.769-0.939-1.678-1.673-2.739-2.197
		C459.694,209.608,458.523,209.346,457.233,209.346"/>
	<path style="fill:#174880;" d="M430.339,237.863h-8.916V201.41h8.916V237.863z M425.882,186.406c-2.569,0-4.644,2.08-4.644,4.647
		c0,2.567,2.075,4.649,4.644,4.649c2.566,0,4.646-2.082,4.646-4.649C430.527,188.486,428.448,186.406,425.882,186.406z"/>
	<path style="fill:#CF381E;" d="M277.83,325.807l-0.002,0.006c-0.526-0.531-2.215-0.852-3.649-0.848
		c-0.006,0-0.01-0.001-0.016-0.002c-1.303-0.123-2.693,0.149-3.532,0.363c-0.212,0.035-0.439,0.105-0.673,0.189
		c-0.067,0.021-0.102,0.033-0.102,0.033l0.001,0.005c-1.486,0.576-3.221,1.998-3.843,2.969l-0.005-0.001
		c0,0-0.004,0.014-0.004,0.016c-0.087,0.139-0.161,0.271-0.198,0.387c0.032-0.101,0.064-0.087,0.095-0.035
		c-0.465,1.631-2.26,8.265-1.564,10.991c0.298,1.718,0.826,3.028,2.339,4.07l-0.005,0.014l0.126,0.071
		c0.312,0.204,0.651,0.403,1.051,0.588c0,0,1.136-0.146,2.617-0.568c0.505,0.014,0.944-0.165,1.343-0.436
		c1.653-0.606,3.431-1.541,4.49-2.949c0.002-0.003,0.004-0.007,0.007-0.01c0.628-0.627,1.189-1.324,1.644-1.838
		c1.054-1.188,0.327-1.106,1.313-2.211c0.18-0.201,0.352-0.429,0.496-0.67c0.002-0.001,0.002-0.002,0.005-0.005
		c0.76-0.993,0.574-1.993,0.766-4.718c0.026-0.118,0.035-0.243,0.025-0.374c0-0.003,0.001-0.005,0.001-0.008
		C280.802,327.801,277.83,325.807,277.83,325.807z M278.028,333.181c-0.035,0.076-0.087,0.189-0.155,0.336
		c-0.061,0.09-0.121,0.183-0.205,0.234c0.015,0.032,0.045,0.042,0.065,0.067c-0.106,0.227-0.227,0.489-0.355,0.759
		c-0.049,0.031-0.099,0.062-0.135,0.111c-0.139,0.427-0.314,0.836-0.514,1.23c-0.028,0.054-0.054,0.106-0.078,0.154
		c-0.652,1.23-1.581,2.297-2.713,3.133c-2.407,1.286-4.31,2.345-7.019,1.961c-1.249-3.917,2.976-11.428,3.341-12.158
		c0.147-0.294,0.48-0.467,0.841-0.62c0.057-0.016,1.719-0.5,2.394-0.609c0.004-0.001,0.006-0.003,0.009-0.003
		c0.464-0.024,0.952-0.222,1.322-0.18c0.067,0.33,2.307,0.788,2.624,1.382C277.859,329.746,278.374,332.05,278.028,333.181z"/>
	<path style="fill:#CF381E;" d="M156.751,315.961c-0.703,0.041-1.359-0.221-2.02-0.15c-0.813,0.086-1.437,0.623-2.305,0.453
		c1.32-2.735-4.48-1.626-2.345,0c-0.831,0.06-0.897,1.435-1.364,2.158c-1.583,2.456,1.152,2.744,1.152,5.274
		c0,1.874-1.158,17.083-1.178,18.104c0.056,1.41,1.428,1.966,2.185,1.909c5.302-0.401,13.1-10.798,14.944-15.147
		c0.182-1.006,0.538-1.396,0.372-2.351C166.08,325.092,166.234,315.403,156.751,315.961z M160.725,330.786
		c-1.599,1.867-3.223,3.248-5.158,5.006c-0.722,0.657-1.284,2.089-2.131,1.899c-1.819-0.41-0.428-2.612-0.231-3.884
		c0.146-0.939-0.209-2.481-0.209-3.623c0-0.837,0.087-1.72,0-2.551c0-0.417-0.072-2.057-0.19-3.34
		c-0.064-0.695-0.121-1.492-0.006-2.156c-1.687-0.824,1.362-1.469,2.031-1.656c1.427-0.402,2.665-0.086,3.996-0.439
		c0.561-0.148,1.36,0.398,1.877,0.607C161.215,320.857,165.885,325.058,160.725,330.786z"/>
	<path style="fill:#CF381E;" d="M183.554,336.832c-0.638,0.507-3.429,3.83-4.08,3.899c-1.766,0.186-1.693-3.989-1.731-4.907
		c-0.097-2.14-0.737-8.283-0.664-9.034c0.095-0.974,0.498-6.402-0.059-7.056c0.15,0.176-0.006-2.713,0.019-2.871
		c0.06-0.373,0.161-2.061,0.058-2.256c-1.029-1.003-3.915-2.347-3.348,0.417c0.493,2.403,0.193,3.638,0.244,6.012
		c0.021,0.973,0.259,5.326-0.019,5.609c-0.165,0.169,0.415,4.991,0.497,5.866c0.13,1.392,0.335,2.472,0.327,3.762
		c-0.015,2.083,0.828,5.056,2.021,6.798c0.415,0.606,1.016,1.167,1.796,1.167c1.415,0,2.666-0.966,3.02-1.886
		c0.254-0.66,1.426-3.39,1.998-4.272C184.109,337.349,184.462,337.024,183.554,336.832z"/>
	<path style="fill:#CF381E;" d="M219.038,325.807l-0.003,0.006c-0.525-0.531-2.214-0.852-3.648-0.848
		c-0.006,0-0.01-0.001-0.016-0.002c-1.064-0.1-2.17,0.063-3.002,0.242c-0.808-0.217-1.915,0.308-2.935,1.237
		c-0.955,0.651-1.812,1.457-2.211,2.08l-0.005-0.001c0,0-0.004,0.014-0.004,0.016c-0.088,0.139-0.161,0.271-0.197,0.387
		c0.032-0.101,0.064-0.087,0.095-0.035c-0.456,1.6-2.188,8.009-1.595,10.824c-0.015,0.098-0.03,0.167-0.042,0.167
		c-0.079,0.724-1.832,2.22-2.698,1.758c-1.306-0.695-0.923-1.265-1.83-2.372c-1.203-1.469-0.367-15.094-0.205-16.255
		c2.457,0.308,6.927-0.752,6.866-1.983c-0.061-1.231-2.656-1.18-3.628-0.79c-0.498,0.2-3.609,0.481-4.212,0.486
		c0.526-1.553-0.394-3.82-2.149-2.309c-0.282,0.426,0.419,2.201-0.022,2.696c-1.166,1.307-5.968-0.767-3.918,2.935
		c-0.029-0.021,1.296-0.319,1.53-0.351c5.004-0.693,1.517,11.679,3.927,17.56c0.622,1.518,1.456,3.224,3.357,3.293
		c2.118,0.077,2.891-1.86,3.567-2.784c0.051,1.385,1.493,3.128,2.691,3.166c1.181,0.038,8.272-1.442,10.244-5.912
		c0.056-0.064,0.115-0.134,0.169-0.194c1.054-1.188,0.326-1.106,1.313-2.211c0.179-0.201,0.352-0.429,0.495-0.67
		c0.002-0.001,0.003-0.002,0.005-0.005c0.547-0.714,0.604-1.442,0.665-2.804c0.124-0.709,0.176-1.415,0.109-2.013
		c0.012-0.09,0.025-0.179,0.019-0.276c0-0.003,0.001-0.005,0.001-0.008C222.009,327.801,219.038,325.807,219.038,325.807z
		 M219.331,332.594c-0.035,0.227-0.079,0.447-0.128,0.657c-0.033,0.072-0.069,0.15-0.123,0.268c-0.061,0.09-0.12,0.183-0.206,0.234
		c0.015,0.032,0.045,0.042,0.066,0.067c-0.106,0.227-0.227,0.489-0.355,0.759c-0.049,0.031-0.097,0.062-0.135,0.111
		c-0.139,0.427-0.315,0.836-0.515,1.23c-0.027,0.054-0.053,0.106-0.078,0.154c-0.652,1.23-1.582,2.297-2.713,3.133
		c-2.407,1.286-4.31,2.345-7.02,1.961c-0.075-0.237-0.128-0.487-0.166-0.747c-0.013-1.113,0.113-2.431,0.347-3.778
		c0.883-3.505,2.912-7.137,3.161-7.632c0.022-0.044,0.055-0.079,0.085-0.118c0.209-0.165,0.417-0.313,0.625-0.442
		c0.044-0.02,0.086-0.04,0.131-0.06c0.058-0.016,1.72-0.5,2.395-0.609c0.004-0.001,0.006-0.003,0.01-0.003
		c0.26-0.014,0.526-0.079,0.776-0.129c0.274,0.028,0.535,0.077,0.783,0.139c0.344,0.181,1,0.392,1.555,0.635
		c0.384,0.226,0.652,0.442,0.759,0.557c0.064,0.069,0.115,0.145,0.17,0.219C219.078,329.961,219.416,331.494,219.331,332.594z"/>
	<path style="fill:#CF381E;" d="M242.467,332.635c-0.481-0.138-1.798,0.915-2.54,1.491c-0.834,0.647-0.701,1.281-1.186,1.99
		c-0.627,0.916-2.959,3.161-3.286,2.586c-0.327-0.575,0.208-2.206,0.578-3.342c0.255-0.782,0.027-2.671-0.074-3.611
		c-0.146-1.354-0.01-3.357-0.178-4.466c-0.347-1.076,0.517-2.672-0.833-2.904c-2.398-0.412-3.213,0.802-5.232,2.702
		c-1.253,1.179-1.348,1.583-1.845,3.342c-0.176,0.622-0.467,2.386-1.233,2.672c-0.396,0.148-0.638-5.454-0.669-6.067
		c-0.137-2.704-0.274-5.407-0.411-8.111c-0.036-0.703-0.185-3.599-0.255-3.525c0.713-0.768-3.195-4.749-2.505,0.125
		c0.164,1.157,0.34,5.205,0.173,5.205c0.08,1.311,0.212,4.26,0.564,6.239c0.352,1.979,0.265,10.846,1.767,16.064
		c0.267,0.928,0.373,1.459,1.365,0.945c0.873-0.452,0.962-3.302,1.156-4.12c0.352-1.487,0.706-2.989,1.214-4.434
		c0.579-1.65,2.133-7.019,3.824-7.019c2.054,0,0.294,8.153,0.151,9.38c-0.143,1.227-0.771,5.378,0.987,6.229
		c0.935,0.452,2.381-1.54,2.739-1.776c0.962-0.636,3.093-4.141,3.617-5.178c0.426-0.842,0.903-1.87,1.656-2.485
		C242.797,333.924,242.949,332.773,242.467,332.635z"/>
	<path style="fill:#CF381E;" d="M259.767,324.669c-0.716,0.251-3.186,7.874-4.209,9.068c-0.401-2.382-0.477-5.145-0.856-7.087
		c-0.075-0.382-0.94-0.606-0.486-1.082c0.419-0.437-0.055-1.346-0.613-1.346c-2.056,0-1.972,1.082-1.814,2.401
		c0.159,1.319,0.774,6.589,1.084,8.011c0.39,1.786-0.046,4.097,0.282,5.792c0.141,0.729,0.505,1.475,0.744,2.176
		c0.311,0.908,2.335,1.653,2.525,1.341c0.225-0.368,0.847-4.443,1.115-5.475c0.199-0.768,2.487-9.924,3.55-9.924
		c1.807,0,1.811,2.139,3.136,3.389C264.423,331.441,263.511,323.352,259.767,324.669z"/>
	<path style="fill:#CF381E;" d="M300.396,341.798c-3.685,2.448-4.15-10.806-4.395-12.005c0.31-2.215-1.629-6.589-4.585-5.414
		c-0.743,0.298-1.31,1.354-1.81,1.836c-1.003,0.741-3.076,1.936-3.464,3.27c-0.42,1.447-3.651,3.238-3.34,4.809
		c0.053,0.265-0.845,2.079-0.99,2.207c-0.98,0.871-0.09,1.398-0.216,2.594c-0.154,1.461,0.141,5.616,1.997,5.19
		c-0.019,0.16,0.014,0.077,0.031,0.002c4.236,0.731,8.959-4.609,10.582-6.706c0.258,0.833,0.802,2.511,1.102,3.389
		c0.196,0.575,0.131,0.364,0.425,1.139c0.913,2.401,3.697,1.202,4.109,1.114c-0.194,0.041,1.035-0.52,0.782-0.257
		C301.576,341.982,300.966,342.453,300.396,341.798z M293.23,333.118c-0.237,1.349-0.943,2.902-1.679,4.065
		c-0.604,0.954-2.271,2.26-3.175,2.749c-0.649,0.357-2.72,1.751-3.572,1.361c-0.505,0-0.702-0.404-0.733-0.969
		c0.017-0.051,0.019-0.171,0.003-0.374c0.041-0.762,0.29-1.684,0.5-2.341c0.474-1.106,1.219-2.326,2.009-3.746
		c0.001-0.001,0.002-0.002,0.003-0.004c0.39-0.34,0.718-0.689,0.712-1.096c0.309-0.456,0.62-0.883,0.95-1.286
		c0.591-0.473,1.215-1.136,1.609-1.766c0.497-0.487,0.974-0.931,1.375-1.282c0.002-0.002,0.004-0.003,0.007-0.006
		c0.003-0.003,0.007-0.006,0.009-0.008c1.266-1.104,1.8-0.974,2.084-0.353C293.441,329.698,293.507,331.522,293.23,333.118z"/>
	<path style="fill:#CF381E;" d="M323.008,321.783c0.816-0.699,1.692-0.983,1.304-2.122c-0.538-1.584-4.265-2.02-2.642-0.352h-0.584
		C321.482,320.288,322.591,320.79,323.008,321.783z"/>
	<path style="fill:#CF381E;" d="M324.543,331.607c0.13-1.292,1.445-2.912-0.098-4.17c-1.543-1.258-2.593,5.053-2.887,6.301
		c-0.214,0.9-0.603,1.229-1.311,1.981c-0.796,0.846-0.652,2.205-1.658,3.098c-0.536,0.475-0.355,2.097-1.236,1.085
		c-0.097-0.11-0.173-1.834-0.211-2.319c-0.019-0.244,0.008-0.489,0.048-0.729c0.142-0.85-0.01-2.612-0.045-3.445
		c-0.08-1.957,0.032-9.171-2.689-9.171c-0.595,0-2.571,8.133-2.361,10.408c0,0.009-0.003,0.013-0.003,0.023
		c0.011,0.63-0.567,0.269-0.583,0.259c-0.963-0.852-0.565-4.45-1.22-5.297c-0.169-0.218-1.657-4.971-2.845-4.835l0.001-0.006
		l-0.003,0.007c-0.262,0.031-0.509,0.29-0.724,0.897c-0.125,0.353-0.27,0.864-0.396,1.373c-0.91,1.999-2.074,4.969-2.289,7.499
		c-0.002,0.023-0.002,0.039-0.004,0.062c-0.186,0.728-0.143,1.421-0.052,2.352c-0.97-0.854-0.593-1.977-0.741-3.254
		c-0.237-2.05-0.532-4.103-0.712-6.159c-0.092-1.056,0.034-3.363-0.713-4.181c-1.241-1.358-1.966,0.052-1.971,1.398l0,0v0.003
		c0,0.158,0.013,0.314,0.032,0.467c0.145,2.08,0.752,10.499,1.342,13.409c0.002,0.01,0.004,0.019,0.007,0.03
		c0.001,0.003,0.001,0.005,0.001,0.005c0.141,0.686,0.293,1.138,0.444,1.437c-0.062,0.073-0.116,0.164-0.065,0.384
		c0.297,1.307,0.469,3.992,2.271,3.992c0.9,0,2.259-6.806,1.428-7.539c1.271-0.304,1.998-5.704,2.398-7.131
		c0.316,1.135,1.404,11.163,1.936,12.467c0.532,1.304,1.198,1.171,1.948,0.574c0.5-0.339,0.739-0.82,0.901-1.616
		c0.531-1.832,1.644-5.763,1.29-7.411c1.251-0.349,1.056,0.638,1.015,1.508h-0.001c0,0-0.178,3.374,0.099,4.767
		c0.001,0.007,0.003,0.012,0.005,0.019c0.107,1.278,2.282,4.146,2.9,4.146c1.002,0,1.911-3.132,2.276-3.873
		c0.82-1.667,1.257-3.08,1.445-4.89c0.402,1.231-0.536,2.885-0.134,3.885c0.304,0.759-0.014,1.115,0.094,1.862
		c0.053,0.364,0.382,0.664,0.412,1.143c0.069,1.109-0.691,1.692,0.855,1.692c1.243,0,0.972-1.912,1.346-2.898
		c0.079-0.121,0.073-4.912,0.073-4.912C323.84,335.293,324.423,332.798,324.543,331.607z"/>
	<path style="fill:#CF381E;" d="M359.298,340.03c0.134-2.76-0.562-5.495-0.531-8.05c0.015-1.252,0.043-1.857-0.456-3.226
		c-0.542-1.485-0.561-3.551-1.981-4.583c-0.81-0.588-3.847,0.149-4.758,1.035c-0.765,0.962-8.654,8.273-9.32,11.645
		c-0.171,0.864-1.549,3.536-2.497,3.536c-1.769,0-1.499-14.869-2.666-15.531c-2.687-1.522-1.492,0.966-2.883,2.58
		c-0.925,1.074-1.687,7.65-3.597,7.188c0.637-1.6-0.208-5.475-0.135-6.144c-0.124,0-0.391-4.466-2.181-4.078
		c-2.035,0-0.5,5.708-0.228,6.688c0.14,0.506-0.347,0.417-0.154,1.015c0.318,0.982,0.436,2.045,0.567,3.064
		c0.146,1.132,0.39,2.65,0.693,3.934c0.162,0.689-0.274,5.072,0.804,5.156c3.252,0.251,2.636-2.588,2.471-2.879
		c-0.483-0.85,1.485-6.17,1.816-7.058c0.208-0.56,1.919-5.307,2.076-1.729c-0.6,0.075,0.269,4.549,0.356,5.438
		c0.133,1.354,0.396,7.51,2.549,6.455c2.153-1.055,3.853-3.61,4.158-4.303c0.017,1.573,0.856,3.264,2.572,3.657
		c0-0.155,0.042-0.131,1.725-0.177c1.682-0.046,8.09-8.378,8.382-8.378c0.452,0,0.891,1.15,0.82,1.591
		c-0.182,1.158-0.311,2.758,0.286,3.729c-1.119,0.067-2.474,1.5-3.327,2.253c-0.916,0.81-1.056,2.063-1.812,2.729
		c-1.725,1.521,1.774,7.117,4.11,5.82c1.417-0.787,2.161-1.57,2.984-3.053c0.14-0.649-0.167-1.95-0.155-2.648
		C359.007,344.284,360.252,341.33,359.298,340.03z M354.704,332.728c-1.242,3.35-7.095,9.262-8.51,8.675
		c-3.612-1.499,6.326-14.317,8.25-14.468C356.152,327.098,355.946,329.378,354.704,332.728z M354.637,348.457
		c-1.513-0.556,0.728-5.467,0.546-5.46c1.546-1.35,1.921-1.602,1.921,0.603C357.104,344.742,356.665,349.202,354.637,348.457z"/>
	<path style="fill:#CF381E;" d="M407.788,341.798c-3.685,2.448-4.15-10.806-4.395-12.005c0.309-2.215-1.629-6.589-4.585-5.414
		c-1.219,0.49-3.089,2.762-4.061,3.644c-0.989,0.9-1.592,2.091-2.411,3.035c-0.506,0.583-1.221,1.144-1.53,1.881
		c-1.213,0.53-3.301,1.492-3.301,3.102c-0.673,0.922-2.09,2.635-3.286,2.661c0.619-0.977,0.208-2.206,0.578-3.341
		c0.254-0.781,0.025-2.672-0.076-3.612c-0.146-1.355-0.01-3.356-0.178-4.466c-0.346-1.077-1.521-2.059-0.833-2.904
		c-2.729-0.365-3.213,0.802-5.231,2.702c-1.253,1.179-1.349,1.583-1.845,3.342c-0.176,0.622-0.467,2.386-1.233,2.672
		c-0.396,0.148-0.637-5.455-0.668-6.067c-0.138-2.704-0.274-5.407-0.412-8.111c-0.036-0.703-0.186-3.599-0.254-3.526
		c0.711-0.768-3.195-4.747-2.504,0.126c0.163,1.157,0.339,5.205,0.171,5.205c0.082,1.312,0.475,6.199,0.32,6.199
		c1.472,5.144,0.511,10.886,2.012,16.104c0.266,0.928,0.373,1.46,1.366,0.945c0.871-0.452,0.962-3.302,1.154-4.12
		c0.352-1.487,0.707-2.989,1.214-4.432c0.58-1.65,2.134-7.02,3.824-7.02c2.053,0-0.939,14.146,1.506,15.841
		c1.074,0.091,2.334-2.333,3.283-3.31c0.375-0.384,2.037-2.488,2.392-3.226c0.623,1.339-0.561,7.212,2.181,6.583
		c-0.016,0.142,0.008,0.091,0.025,0.026c2.928,3.459,8.966-4.635,10.588-6.73c0.258,0.833,0.879,1.723,0.271,2.4
		c0.162,0.449,0.531,0.111,0.831,0.989c0.196,0.575,0.186,0.346,0.425,1.139c0.269,0.891,1.68,2.08,2.33,0.968
		c-0.292,1.948,1.367,0.233,1.779,0.146c-0.194,0.041,1.035-0.52,0.782-0.257C408.968,341.982,408.359,342.453,407.788,341.798z
		 M400.623,333.118c-0.237,1.349-0.944,2.902-1.679,4.065c-0.604,0.954-1.426,1.396-2.136,2.239
		c-1.065,1.266-0.135,0.021-1.039,0.51c-0.648,0.357-2.72,1.751-3.572,1.361c-1.592,0-0.142-3.999,0.045-4.475
		c0.18-0.461,0.909-2.213,1.004-2.31c0.73-0.741,4.182-7.409,7.788-7.234c-0.11,0.143-0.219,0.287-0.329,0.43
		C400.824,329.426,400.918,331.407,400.623,333.118z"/>
	<path style="fill:#CF381E;" d="M412.504,336.16c-0.148-0.291,0.084-0.788,0.084-1.272c-0.318-1.008-0.379-2.09-0.258-3.281
		c0.13-1.292-0.34-3.481-0.098-4.17c-1.522-1.522-2.194-0.787-2.198,1.408c0.003-1.165-1.089,5.028-0.514,6.087
		c-0.166,0.019-0.294,0.013-0.438,0.056c1.261,1.906-0.781,5.565,0.367,7.131c0.495,0.675-0.46,1.992,0.575,1.992
		c2.197,0,1-2.312,2.094-3.307c-0.001-0.396-0.001-0.396,0.197-0.85c-0.558-0.317-0.613-0.782,0.118-1.253
		c-0.17-0.09-0.035-0.359-0.17-0.09C412.799,337.54,412.463,337.437,412.504,336.16z"/>
	<path style="fill:#CF381E;" d="M412.098,319.661c-0.538-1.584-4.848-2.02-3.226-0.352c0.397,0.979,1.506,1.482,1.922,2.475
		C411.61,321.084,412.486,320.801,412.098,319.661z"/>
	<path style="fill:#CF381E;" d="M170.706,331.607c0.13-1.292-0.34-3.481-0.097-4.17c-1.522-1.522-2.194-0.787-2.198,1.408
		c0.002-1.165-1.089,5.028-0.514,6.087c-0.166,0.019-0.294,0.013-0.439,0.056c1.262,1.906-0.78,5.565,0.367,7.131
		c0.495,0.675-0.46,1.992,0.575,1.992c2.197,0,1-2.312,2.093-3.307c-0.001-0.396-0.001-0.396,0.198-0.85
		c-0.558-0.317-0.613-0.782,0.118-1.253c-0.17-0.09-0.034-0.359-0.17-0.09c0.536-1.071,0.2-1.174,0.241-2.451
		c-0.148-0.291,0.084-0.788,0.084-1.272C170.646,333.88,170.585,332.798,170.706,331.607z"/>
	<path style="fill:#CF381E;" d="M170.474,319.661c-0.538-1.584-4.848-2.02-3.226-0.352c0.397,0.979,1.506,1.482,1.922,2.475
		C169.986,321.084,170.862,320.801,170.474,319.661z"/>
</g>
</svg>
