<?xml version="1.0" encoding="utf-8"?>
<!-- Generator: Adobe Illustrator 16.0.0, SVG Export Plug-In . SVG Version: 6.00 Build 0)  -->
<!DOCTYPE svg PUBLIC "-//W3C//DTD SVG 1.1//EN" "http://www.w3.org/Graphics/SVG/1.1/DTD/svg11.dtd">
<svg version="1.1" id="Layer_1" xmlns="http://www.w3.org/2000/svg" xmlns:xlink="http://www.w3.org/1999/xlink" x="0px" y="0px"
	 width="800px" height="400px" viewBox="0 0 800 400" enable-background="new 0 0 800 400" xml:space="preserve">
<g>
	<path fill="#DC3818" d="M77.808,81.451h139.968c-4.504-7.837-18.264-13.549-26.364-16.686
		c-27.094-10.498-58.614-11.38-85.802-0.569C96.981,67.598,82.601,73.089,77.808,81.451z"/>
	<path fill="#DC3818" d="M52.882,119.319h189.82c-1.657-7.159-5.359-14.479-9.35-20.613c-1.285-1.917-2.726-5.044-5.05-5.941
		c-3.387-1.247-8.833-0.288-12.444-0.288h-28.761h-84.365H78.286c-3.221,0-7.979-0.88-11.024,0.288
		c-2.456,0.957-3.924,4.307-5.273,6.423C58.154,105.308,54.52,112.242,52.882,119.319z"/>
	<circle fill="#DC3818" cx="682.388" cy="197.333" r="69.755"/>
	<circle fill="#DC3818" cx="421.699" cy="197.333" r="69.756"/>
	<path fill="#DC3818" d="M480.457,128.906l33.673,67.108l12.519,24.927l0.306,13.9v29.239h49.372l-0.479-28.281l0.306-14.379
		l10.122-20.133l20.73-41.224l10.185-20.132l5.154-11.506h-36.431c-3.273,0-10.592-1.359-13.234,0.769
		c-2.624,2.114-4.09,7.282-5.579,10.256c-3.365,6.734-6.78,13.439-10.224,20.134c-1.766,3.435-3.188,7.813-5.954,10.545
		l-5.328-11.504l-9.649-19.175l-5.822-10.53l-12.756-0.494h-24.445L480.457,128.906z"/>
	<polygon fill="#DC3818" points="50.005,130.345 49.526,157.188 246.058,157.188 245.578,130.345 	"/>
	<path fill="#DC3818" d="M52.402,168.213c1.192,8.85,5.401,19.463,9.586,27.323c10.809-2.574,24.358-0.479,35.472-0.479h72.86
		h41.703c6.874,0,14.86-1.118,21.571,0.479c4.197-7.375,8.847-18.841,9.587-27.323H52.402z"/>
	<path fill="#FFFFFF" d="M417.185,172.253c-3.391,0.492-6.712,1.712-9.588,3.49c-21.744,13.802-8.538,48.627,16.778,44.992
		c3.441-0.494,6.623-1.673,9.586-3.509C456.226,203.433,442.589,168.57,417.185,172.253z M677.947,172.258
		c-3.175,0.51-6.397,1.85-9.106,3.624c-21.572,13.579-8.524,48.894,16.777,44.848c3.557-0.56,7.035-1.895,10.065-3.837
		C717.826,202.726,703.18,168.213,677.947,172.258z"/>
	<path fill="#DC3818" d="M66.783,206.081c1.438,6.939,6.181,14.38,9.482,20.612c0.943,1.791,2.125,5.548,4.066,6.421
		c2.579,1.161,7.064,0.29,9.94,0.29h23.008h72.382h20.611c2.587,0,6.604,0.754,9.006-0.29c2.02-0.906,3.106-4.505,4.055-6.421
		c3.169-6.341,8.218-13.599,9.469-20.612H66.783z M85.956,243.949c1.278,6.627,7.078,13.736,10.326,19.652
		c1.167,2.123,2.607,5.859,4.715,7.191c1.668,1.029,4.612,0.479,6.529,0.479h14.86h52.249h13.901c1.774,0,4.477,0.491,6.049-0.479
		c2.1-1.338,3.698-4.75,4.88-6.875c3.279-5.895,7.856-13.428,10.162-19.969l-22.05,0.479h-39.785h-39.786L85.956,243.949z
		 M107.526,282.297l11.505,19.173l4.975,7.191l5.571,0.479h13.421h19.653l8.528-0.288l7.859-11.509l9.019-15.047H107.526z
		 M596.459,284.693v27.803h4.313l0.48-11.026c7.67,0.581,6.679,11.567,15.818,10.548l-7.189-11.025
		c6.15-1.878,9.22-10.742,2.793-14.661C608.247,283.635,601.403,284.693,596.459,284.693z M628.574,284.942
		c-15.496,3.381-10.545,30.694,6.232,27.325C650.908,309.02,645.675,281.213,628.574,284.942z M656.379,284.999
		c-15.34,4.36-9.47,31.811,7.188,27.121C679.245,307.774,673.264,280.199,656.379,284.999z M676.989,312.496l4.793-0.479v-17.736
		h0.479l7.189,11.982h0.96l7.19-11.982h0.479v18.215h4.793v-27.803c-6.354,0.006-10.14,8.518-12.462,13.902
		c-2.481-3.23-6.716-14.38-11.504-13.822c-2.783,0.398-1.918,4.626-1.918,6.632V312.496z M707.668,305.306
		c0,1.455-0.48,3.708,0.479,4.961c3.344,4.651,14.969,2.531,17.233-2.085c4.974-10.171-8.033-9.724-12.097-14.563
		c-3.243-3.865,3.96-4.924,6.368-4.234c1.836,0.583,3.355,1.592,5.271,2.021v-4.794c-6.132-2.516-22.8-2.191-16.776,9.108
		c2.702,4.881,9.269,3.625,12.289,7.694c1.613,2.233-0.535,4.141-2.701,4.642C713.898,308.93,710.939,306.662,707.668,305.306z"/>
	<path fill="#FFFFFF" d="M601.253,297.156c1.903,0,3.834,0.119,5.752,0c10.205-0.797-0.839-12.94-5.273-7.38
		C600.508,291.405,601.253,295.254,601.253,297.156z M629.533,289.32c-9.308,2.93-5.814,22.276,4.793,18.44
		C643.436,304.443,640.063,286.007,629.533,289.32z M657.816,289.319c-9.367,2.944-5.98,22.137,4.791,18.453
		C671.71,304.658,668.353,286.018,657.816,289.319z"/>
	<path fill="#DC3818" d="M131.494,320.165c5.261,9.034,10.785,17.045,15.819,24.447h0.959c5.044-7.475,10.482-15.556,15.818-24.447
		H131.494z"/>
</g>
</svg>
